<?xml version="1.0" encoding="UTF-8"?>
<svg xmlns="http://www.w3.org/2000/svg" xmlns:xlink="http://www.w3.org/1999/xlink" width="216.216705pt" height="215.388611pt" viewBox="0 0 216.216705 215.388611">
<defs>
<clipPath id="clip-0">
<path clip-rule="nonzero" d="M 0 174 L 216 174 L 216 215.386719 L 0 215.386719 Z M 0 174 "/>
</clipPath>
<clipPath id="clip-1">
<path clip-rule="nonzero" d="M 0 1 L 216.214844 1 L 216.214844 167 L 0 167 Z M 0 1 "/>
</clipPath>
</defs>
<g clip-path="url(#clip-0)">
<path fill-rule="nonzero" fill="rgb(0%, 0%, 0%)" fill-opacity="1" d="M 158.058594 204.058594 L 216 204.058594 L 216 205.390625 L 158.058594 205.390625 Z M 0 204.054688 L 33.554688 204.054688 L 33.554688 205.386719 L 0 205.386719 Z M 26.484375 192.171875 C 26.484375 191.539062 26.582031 190.957031 26.78125 190.425781 C 26.984375 189.894531 27.261719 189.433594 27.617188 189.042969 C 27.976562 188.65625 28.40625 188.347656 28.910156 188.128906 C 29.414062 187.898438 29.96875 187.78125 30.574219 187.765625 C 31.007812 187.753906 31.398438 187.820312 31.75 187.957031 C 32.097656 188.089844 32.398438 188.289062 32.644531 188.554688 C 32.890625 188.820312 33.082031 189.148438 33.21875 189.53125 C 33.363281 189.917969 33.445312 190.351562 33.464844 190.839844 C 33.476562 191.152344 33.464844 191.417969 33.441406 191.644531 C 33.421875 191.871094 33.398438 192.074219 33.375 192.253906 L 27.898438 192.253906 L 27.898438 192.339844 C 27.898438 192.367188 27.898438 192.394531 27.90625 192.421875 C 27.925781 193.019531 28.027344 193.511719 28.207031 193.902344 C 28.390625 194.289062 28.617188 194.601562 28.886719 194.832031 C 29.164062 195.058594 29.46875 195.21875 29.796875 195.3125 C 30.128906 195.402344 30.449219 195.445312 30.765625 195.445312 C 30.957031 195.445312 31.160156 195.4375 31.371094 195.417969 C 31.585938 195.390625 31.789062 195.359375 31.984375 195.320312 C 32.1875 195.277344 32.371094 195.226562 32.539062 195.171875 C 32.714844 195.117188 32.851562 195.0625 32.953125 195.003906 L 33.226562 195.632812 C 33.085938 195.757812 32.898438 195.875 32.667969 195.980469 C 32.4375 196.082031 32.191406 196.171875 31.917969 196.246094 C 31.648438 196.3125 31.363281 196.367188 31.070312 196.398438 C 30.773438 196.4375 30.484375 196.460938 30.203125 196.460938 C 29.609375 196.460938 29.078125 196.359375 28.613281 196.15625 C 28.15625 195.949219 27.769531 195.660156 27.453125 195.289062 C 27.136719 194.917969 26.898438 194.464844 26.730469 193.9375 C 26.566406 193.410156 26.484375 192.820312 26.484375 192.171875 M 31.957031 191.378906 C 31.972656 191.128906 31.972656 190.878906 31.964844 190.625 C 31.957031 190.371094 31.929688 190.128906 31.875 189.902344 C 31.820312 189.667969 31.738281 189.460938 31.625 189.273438 C 31.515625 189.082031 31.367188 188.925781 31.179688 188.808594 C 31.050781 188.722656 30.90625 188.660156 30.742188 188.621094 C 30.582031 188.578125 30.398438 188.554688 30.191406 188.554688 C 29.914062 188.554688 29.644531 188.609375 29.382812 188.710938 C 29.128906 188.816406 28.894531 188.980469 28.6875 189.207031 C 28.488281 189.433594 28.316406 189.726562 28.179688 190.085938 C 28.039062 190.441406 27.953125 190.871094 27.914062 191.378906 L 31.957031 191.378906 M 16.28125 195.652344 L 17.390625 195.5 L 17.390625 185.488281 L 16.128906 185.222656 L 16.128906 184.578125 L 18.464844 184.269531 L 18.8125 184.4375 L 18.796875 187.707031 L 18.773438 188.984375 C 18.992188 188.808594 19.226562 188.648438 19.476562 188.511719 C 19.734375 188.375 19.988281 188.257812 20.246094 188.164062 C 20.503906 188.066406 20.75 187.992188 20.992188 187.941406 C 21.238281 187.890625 21.460938 187.863281 21.65625 187.863281 C 22.160156 187.863281 22.570312 187.9375 22.890625 188.089844 C 23.210938 188.242188 23.464844 188.480469 23.648438 188.800781 C 23.832031 189.117188 23.960938 189.523438 24.03125 190.019531 C 24.101562 190.519531 24.132812 191.109375 24.128906 191.792969 L 24.128906 195.5 L 25.234375 195.652344 L 25.234375 196.28125 L 21.464844 196.28125 L 21.464844 195.652344 L 22.707031 195.5 L 22.707031 192.421875 C 22.707031 191.851562 22.691406 191.347656 22.664062 190.914062 C 22.640625 190.480469 22.566406 190.117188 22.449219 189.828125 C 22.335938 189.53125 22.164062 189.3125 21.929688 189.164062 C 21.699219 189.015625 21.378906 188.941406 20.96875 188.941406 C 20.808594 188.941406 20.636719 188.949219 20.453125 188.972656 C 20.269531 188.992188 20.085938 189.023438 19.898438 189.074219 C 19.714844 189.117188 19.53125 189.179688 19.34375 189.257812 C 19.160156 189.339844 18.984375 189.4375 18.8125 189.5625 L 18.8125 195.5 L 19.898438 195.652344 L 19.898438 196.28125 L 16.28125 196.28125 L 16.28125 195.652344 M 8.242188 195.652344 L 10.054688 195.433594 L 10.054688 185.621094 L 7.371094 185.769531 L 6.851562 187.035156 L 6.179688 187.046875 L 6.363281 184.800781 L 15.167969 184.800781 L 15.15625 187.070312 L 14.546875 187.136719 L 14.164062 185.761719 L 11.496094 185.621094 L 11.496094 195.433594 L 13.425781 195.652344 L 13.425781 196.28125 L 8.242188 196.28125 L 8.242188 195.652344 M 136.988281 188.382812 C 136.988281 188.382812 143.050781 179.527344 143.050781 179.527344 C 143.980469 178.109375 145.488281 176.695312 149.425781 176.648438 L 149.425781 175.320312 L 138.890625 175.320312 L 138.890625 176.648438 C 140.660156 176.695312 141.636719 177.667969 141.636719 178.6875 C 141.636719 179.128906 141.546875 179.21875 141.238281 179.703125 C 141.238281 179.703125 136.191406 187.140625 136.191406 187.140625 C 136.191406 187.140625 130.523438 178.640625 130.523438 178.640625 C 130.433594 178.507812 130.210938 178.15625 130.210938 177.976562 C 130.210938 177.445312 131.1875 176.695312 133.046875 176.648438 L 133.046875 175.320312 C 131.539062 175.453125 128.308594 175.453125 126.625 175.453125 C 125.253906 175.453125 122.507812 175.410156 120.871094 175.320312 L 120.871094 176.648438 L 121.710938 176.648438 C 124.148438 176.648438 124.988281 176.960938 125.828125 178.199219 C 125.828125 178.199219 133.929688 190.460938 133.929688 190.460938 C 133.929688 190.460938 126.714844 201.132812 126.714844 201.132812 C 126.09375 202.019531 124.765625 204.054688 120.339844 204.054688 L 120.339844 205.425781 L 130.875 205.425781 L 130.875 204.054688 C 128.839844 204.011719 128.085938 202.816406 128.085938 202.019531 C 128.085938 201.621094 128.21875 201.441406 128.53125 200.957031 C 128.53125 200.957031 134.773438 191.703125 134.773438 191.703125 C 134.773438 191.703125 141.769531 202.238281 141.769531 202.238281 C 141.855469 202.417969 141.988281 202.59375 141.988281 202.726562 C 141.988281 203.257812 141.015625 204.011719 139.113281 204.054688 L 139.113281 205.425781 C 140.660156 205.292969 143.894531 205.292969 145.53125 205.292969 C 147.390625 205.292969 149.425781 205.339844 151.285156 205.425781 L 151.285156 204.054688 L 150.445312 204.054688 C 148.144531 204.054688 147.214844 203.832031 146.285156 202.460938 C 146.285156 202.460938 136.988281 188.382812 136.988281 188.382812 Z M 123.660156 204.011719 L 122.554688 204.011719 C 121.445312 210.785156 120.429688 214.015625 112.855469 214.015625 L 107.011719 214.015625 C 104.933594 214.015625 104.84375 213.707031 104.84375 212.246094 L 104.84375 200.46875 L 108.785156 200.46875 C 113.078125 200.46875 113.566406 201.886719 113.566406 205.648438 L 114.671875 205.648438 L 114.671875 193.960938 L 113.566406 193.960938 C 113.566406 197.722656 113.078125 199.097656 108.785156 199.097656 L 104.84375 199.097656 L 104.84375 188.515625 C 104.84375 187.054688 104.933594 186.742188 107.011719 186.742188 L 112.679688 186.742188 C 119.453125 186.742188 120.605469 189.179688 121.3125 195.332031 L 122.421875 195.332031 C 122.421875 195.332031 121.179688 185.414062 121.179688 185.414062 L 96.386719 185.414062 L 96.386719 186.742188 L 97.40625 186.742188 C 100.816406 186.742188 100.902344 187.230469 100.902344 188.824219 L 100.902344 211.933594 C 100.902344 213.527344 100.816406 214.015625 97.40625 214.015625 L 96.386719 214.015625 L 96.386719 215.386719 L 121.800781 215.386719 C 121.800781 215.386719 123.660156 204.011719 123.660156 204.011719 Z M 99.929688 175.585938 L 72.96875 175.585938 C 72.96875 175.585938 72.171875 185.503906 72.171875 185.503906 L 73.234375 185.503906 C 73.851562 178.375 74.515625 176.914062 81.203125 176.914062 C 82 176.914062 83.148438 176.914062 83.59375 177.003906 C 84.523438 177.179688 84.523438 177.667969 84.523438 178.6875 L 84.523438 201.929688 C 84.523438 203.433594 84.523438 204.054688 79.875 204.054688 L 78.101562 204.054688 L 78.101562 205.425781 C 79.917969 205.292969 84.390625 205.292969 86.425781 205.292969 C 88.460938 205.292969 93.023438 205.292969 94.839844 205.425781 L 94.839844 204.054688 L 93.066406 204.054688 C 88.417969 204.054688 88.417969 203.433594 88.417969 201.929688 L 88.417969 178.6875 C 88.417969 177.800781 88.417969 177.179688 89.214844 177.003906 C 89.703125 176.914062 90.898438 176.914062 91.738281 176.914062 C 98.378906 176.914062 99.042969 178.375 99.664062 185.503906 L 100.769531 185.503906 C 100.769531 185.503906 99.929688 175.585938 99.929688 175.585938 Z M 64.464844 175.277344 C 64.289062 174.746094 64.199219 174.570312 63.625 174.570312 C 63.050781 174.570312 62.917969 174.746094 62.738281 175.277344 C 62.738281 175.277344 55.613281 193.339844 55.613281 193.339844 C 55.300781 194.09375 54.769531 195.464844 52.027344 195.464844 L 52.027344 196.574219 L 58.886719 196.574219 L 58.886719 195.464844 C 57.515625 195.464844 56.675781 194.84375 56.675781 193.960938 C 56.675781 193.738281 56.71875 193.648438 56.808594 193.339844 C 56.808594 193.339844 58.3125 189.53125 58.3125 189.53125 L 67.078125 189.53125 C 67.078125 189.53125 68.847656 194.046875 68.847656 194.046875 C 68.9375 194.226562 69.027344 194.445312 69.027344 194.578125 C 69.027344 195.464844 67.34375 195.464844 66.503906 195.464844 L 66.503906 196.574219 L 75.226562 196.574219 L 75.226562 195.464844 L 74.605469 195.464844 C 72.523438 195.464844 72.304688 195.15625 71.992188 194.269531 Z M 62.695312 178.421875 C 62.695312 178.421875 66.636719 188.425781 66.636719 188.425781 L 58.753906 188.425781 Z M 65.21875 194.046875 L 64.113281 194.046875 C 63.667969 198.566406 63.050781 204.054688 55.257812 204.054688 L 51.671875 204.054688 C 49.589844 204.054688 49.503906 203.746094 49.503906 202.285156 L 49.503906 178.773438 C 49.503906 177.269531 49.503906 176.648438 53.664062 176.648438 L 55.125 176.648438 L 55.125 175.320312 C 53.53125 175.453125 49.546875 175.453125 47.730469 175.453125 C 46.003906 175.453125 42.550781 175.453125 41.046875 175.320312 L 41.046875 176.648438 L 42.0625 176.648438 C 45.472656 176.648438 45.5625 177.136719 45.5625 178.730469 L 45.5625 201.972656 C 45.5625 203.566406 45.472656 204.054688 42.0625 204.054688 L 41.046875 204.054688 L 41.046875 205.425781 L 64.023438 205.425781 C 64.023438 205.425781 65.21875 194.046875 65.21875 194.046875 Z M 205.875 194.707031 L 205.875 192.007812 C 205.882812 191.113281 205.882812 190.210938 205.882812 189.300781 L 204.75 189.300781 L 204.75 188.75 C 204.96875 188.695312 205.148438 188.652344 205.292969 188.621094 C 205.4375 188.589844 205.558594 188.550781 205.652344 188.511719 C 205.753906 188.46875 205.832031 188.414062 205.898438 188.347656 C 205.960938 188.285156 206.019531 188.191406 206.074219 188.066406 C 206.109375 187.984375 206.152344 187.859375 206.199219 187.699219 C 206.253906 187.535156 206.304688 187.371094 206.347656 187.203125 C 206.398438 187.03125 206.441406 186.871094 206.472656 186.722656 C 206.507812 186.570312 206.53125 186.460938 206.542969 186.398438 L 207.273438 186.398438 L 207.273438 188.371094 L 209.757812 188.371094 L 209.757812 189.300781 L 207.273438 189.300781 L 207.273438 193.027344 C 207.273438 193.601562 207.28125 194.066406 207.292969 194.425781 C 207.308594 194.78125 207.347656 195.058594 207.40625 195.261719 C 207.464844 195.464844 207.550781 195.601562 207.664062 195.675781 C 207.777344 195.746094 207.9375 195.777344 208.136719 195.777344 C 208.261719 195.777344 208.398438 195.765625 208.542969 195.742188 C 208.695312 195.71875 208.84375 195.6875 208.980469 195.652344 C 209.125 195.617188 209.253906 195.582031 209.371094 195.542969 C 209.492188 195.5 209.578125 195.457031 209.636719 195.417969 L 209.867188 196.066406 C 209.753906 196.191406 209.605469 196.300781 209.417969 196.394531 C 209.230469 196.488281 209.023438 196.566406 208.804688 196.628906 C 208.585938 196.695312 208.367188 196.742188 208.144531 196.769531 C 207.929688 196.804688 207.734375 196.820312 207.570312 196.820312 C 207.03125 196.820312 206.613281 196.65625 206.320312 196.328125 C 206.023438 195.996094 205.875 195.457031 205.875 194.707031 M 196.980469 192.667969 C 196.972656 191.984375 197.078125 191.371094 197.285156 190.824219 C 197.492188 190.277344 197.773438 189.808594 198.132812 189.421875 C 198.5 189.03125 198.925781 188.726562 199.414062 188.511719 C 199.90625 188.292969 200.433594 188.175781 201.003906 188.148438 C 201.210938 188.144531 201.417969 188.148438 201.628906 188.164062 C 201.847656 188.175781 202.050781 188.195312 202.238281 188.230469 C 202.429688 188.261719 202.605469 188.300781 202.761719 188.347656 C 202.917969 188.398438 203.046875 188.453125 203.144531 188.519531 L 203.144531 190.292969 L 202.445312 190.292969 L 202.066406 189.363281 C 201.988281 189.296875 201.898438 189.242188 201.792969 189.199219 C 201.691406 189.15625 201.582031 189.117188 201.476562 189.089844 C 201.367188 189.058594 201.257812 189.039062 201.148438 189.027344 C 201.042969 189.015625 200.941406 189.007812 200.855469 189.007812 C 200.523438 189.007812 200.207031 189.066406 199.90625 189.191406 C 199.609375 189.316406 199.339844 189.503906 199.109375 189.753906 C 198.878906 190 198.691406 190.3125 198.554688 190.691406 C 198.417969 191.066406 198.34375 191.507812 198.339844 192.015625 C 198.332031 192.6875 198.414062 193.261719 198.578125 193.738281 C 198.738281 194.214844 198.953125 194.609375 199.214844 194.914062 C 199.472656 195.214844 199.765625 195.4375 200.085938 195.578125 C 200.40625 195.71875 200.722656 195.785156 201.03125 195.785156 C 201.222656 195.785156 201.421875 195.773438 201.628906 195.75 C 201.835938 195.726562 202.039062 195.691406 202.230469 195.652344 C 202.421875 195.613281 202.597656 195.566406 202.761719 195.511719 C 202.925781 195.453125 203.058594 195.394531 203.160156 195.335938 L 203.414062 195.992188 C 203.269531 196.121094 203.09375 196.234375 202.878906 196.332031 C 202.667969 196.433594 202.433594 196.515625 202.175781 196.585938 C 201.925781 196.652344 201.660156 196.707031 201.378906 196.738281 C 201.101562 196.78125 200.824219 196.800781 200.542969 196.800781 C 199.972656 196.800781 199.46875 196.695312 199.027344 196.488281 C 198.589844 196.28125 198.21875 195.992188 197.910156 195.625 C 197.609375 195.253906 197.382812 194.816406 197.222656 194.316406 C 197.066406 193.808594 196.984375 193.257812 196.980469 192.667969 M 188.488281 192.535156 C 188.488281 191.902344 188.585938 191.320312 188.78125 190.789062 C 188.984375 190.257812 189.261719 189.796875 189.617188 189.40625 C 189.976562 189.015625 190.410156 188.710938 190.910156 188.488281 C 191.414062 188.261719 191.96875 188.140625 192.574219 188.128906 C 193.007812 188.117188 193.402344 188.179688 193.75 188.320312 C 194.101562 188.453125 194.398438 188.652344 194.644531 188.917969 C 194.890625 189.183594 195.082031 189.511719 195.222656 189.894531 C 195.363281 190.277344 195.445312 190.714844 195.464844 191.203125 C 195.476562 191.511719 195.464844 191.78125 195.445312 192.007812 C 195.425781 192.234375 195.402344 192.4375 195.378906 192.613281 L 189.898438 192.613281 C 189.898438 192.644531 189.898438 192.675781 189.898438 192.703125 C 189.898438 192.726562 189.898438 192.753906 189.90625 192.785156 C 189.925781 193.382812 190.027344 193.875 190.210938 194.261719 C 190.390625 194.652344 190.617188 194.964844 190.890625 195.195312 C 191.164062 195.421875 191.46875 195.582031 191.800781 195.675781 C 192.128906 195.765625 192.453125 195.808594 192.765625 195.808594 C 192.960938 195.808594 193.160156 195.800781 193.375 195.777344 C 193.585938 195.753906 193.789062 195.722656 193.988281 195.683594 C 194.1875 195.640625 194.375 195.589844 194.542969 195.535156 C 194.714844 195.480469 194.851562 195.425781 194.957031 195.367188 L 195.230469 195.992188 C 195.085938 196.121094 194.898438 196.238281 194.667969 196.339844 C 194.441406 196.445312 194.191406 196.535156 193.921875 196.605469 C 193.648438 196.675781 193.367188 196.726562 193.070312 196.761719 C 192.773438 196.800781 192.488281 196.820312 192.207031 196.820312 C 191.609375 196.820312 191.078125 196.71875 190.617188 196.519531 C 190.15625 196.3125 189.769531 196.023438 189.457031 195.652344 C 189.140625 195.277344 188.898438 194.828125 188.730469 194.300781 C 188.566406 193.773438 188.488281 193.183594 188.488281 192.535156 M 193.957031 191.742188 C 193.972656 191.492188 193.976562 191.238281 193.964844 190.988281 C 193.957031 190.730469 193.929688 190.492188 193.875 190.265625 C 193.820312 190.03125 193.738281 189.824219 193.625 189.636719 C 193.515625 189.445312 193.367188 189.289062 193.183594 189.167969 C 193.054688 189.085938 192.90625 189.023438 192.746094 188.984375 C 192.582031 188.941406 192.398438 188.917969 192.191406 188.917969 C 191.914062 188.917969 191.644531 188.96875 191.386719 189.074219 C 191.128906 189.175781 190.898438 189.34375 190.691406 189.570312 C 190.488281 189.796875 190.316406 190.089844 190.179688 190.449219 C 190.042969 190.804688 189.953125 191.234375 189.914062 191.742188 L 193.957031 191.742188 M 185.335938 186.265625 C 185.21875 186.265625 185.101562 186.246094 184.988281 186.207031 C 184.875 186.160156 184.773438 186.101562 184.6875 186.027344 C 184.601562 185.949219 184.535156 185.851562 184.480469 185.738281 C 184.429688 185.625 184.40625 185.5 184.40625 185.355469 C 184.40625 185.203125 184.4375 185.058594 184.5 184.925781 C 184.570312 184.792969 184.65625 184.679688 184.761719 184.585938 C 184.863281 184.488281 184.980469 184.410156 185.105469 184.355469 C 185.242188 184.304688 185.375 184.277344 185.507812 184.277344 C 185.832031 184.277344 186.070312 184.367188 186.214844 184.550781 C 186.367188 184.726562 186.445312 184.941406 186.445312 185.191406 C 186.445312 185.355469 186.414062 185.503906 186.347656 185.636719 C 186.285156 185.769531 186.203125 185.882812 186.097656 185.976562 C 185.996094 186.066406 185.875 186.136719 185.742188 186.191406 C 185.609375 186.238281 185.476562 186.265625 185.335938 186.265625 M 184.960938 189.804688 L 183.933594 189.257812 L 183.933594 188.816406 L 186.007812 188.222656 L 186.347656 188.371094 L 186.347656 196.761719 C 186.347656 197.339844 186.285156 197.855469 186.15625 198.308594 C 186.035156 198.765625 185.855469 199.152344 185.617188 199.46875 C 185.386719 199.789062 185.105469 200.035156 184.773438 200.199219 C 184.445312 200.367188 184.074219 200.453125 183.664062 200.453125 C 183.617188 200.453125 183.550781 200.449219 183.464844 200.445312 C 183.382812 200.4375 183.296875 200.433594 183.214844 200.421875 C 183.136719 200.414062 183.0625 200.398438 182.992188 200.386719 C 182.925781 200.371094 182.878906 200.355469 182.859375 200.339844 L 182.859375 199.320312 C 182.898438 199.335938 182.957031 199.347656 183.03125 199.359375 C 183.105469 199.367188 183.179688 199.375 183.257812 199.378906 C 183.34375 199.390625 183.421875 199.394531 183.496094 199.394531 C 183.570312 199.398438 183.628906 199.402344 183.671875 199.402344 C 183.910156 199.402344 184.109375 199.355469 184.273438 199.261719 C 184.441406 199.171875 184.574219 199.019531 184.671875 198.804688 C 184.773438 198.589844 184.847656 198.3125 184.894531 197.960938 C 184.9375 197.609375 184.960938 197.175781 184.960938 196.660156 L 184.960938 189.804688 M 174.589844 192.339844 C 174.597656 191.679688 174.710938 191.089844 174.929688 190.574219 C 175.148438 190.050781 175.441406 189.609375 175.800781 189.25 C 176.160156 188.890625 176.574219 188.613281 177.042969 188.421875 C 177.515625 188.230469 178.007812 188.132812 178.519531 188.128906 C 179.148438 188.121094 179.691406 188.230469 180.15625 188.453125 C 180.617188 188.675781 181 188.980469 181.300781 189.371094 C 181.605469 189.753906 181.832031 190.207031 181.980469 190.730469 C 182.128906 191.253906 182.199219 191.8125 182.195312 192.40625 C 182.1875 193.0625 182.085938 193.664062 181.878906 194.203125 C 181.675781 194.746094 181.398438 195.210938 181.050781 195.601562 C 180.703125 195.984375 180.296875 196.285156 179.828125 196.503906 C 179.367188 196.714844 178.867188 196.820312 178.335938 196.820312 C 177.65625 196.820312 177.078125 196.699219 176.597656 196.453125 C 176.121094 196.207031 175.730469 195.875 175.429688 195.460938 C 175.128906 195.046875 174.910156 194.570312 174.773438 194.035156 C 174.640625 193.492188 174.578125 192.929688 174.589844 192.339844 M 178.402344 195.992188 C 178.820312 196.003906 179.175781 195.933594 179.460938 195.777344 C 179.75 195.625 179.984375 195.402344 180.164062 195.105469 C 180.34375 194.804688 180.476562 194.4375 180.554688 193.996094 C 180.636719 193.554688 180.679688 193.046875 180.679688 192.472656 C 180.679688 191.976562 180.636719 191.511719 180.546875 191.085938 C 180.464844 190.652344 180.328125 190.273438 180.140625 189.953125 C 179.957031 189.632812 179.722656 189.382812 179.4375 189.199219 C 179.15625 189.011719 178.820312 188.914062 178.433594 188.902344 C 178.015625 188.898438 177.65625 188.972656 177.359375 189.125 C 177.070312 189.273438 176.832031 189.492188 176.644531 189.785156 C 176.457031 190.074219 176.316406 190.429688 176.230469 190.847656 C 176.144531 191.265625 176.105469 191.742188 176.105469 192.273438 C 176.105469 192.753906 176.152344 193.214844 176.246094 193.65625 C 176.339844 194.101562 176.476562 194.496094 176.664062 194.839844 C 176.851562 195.179688 177.089844 195.457031 177.375 195.667969 C 177.667969 195.875 178.007812 195.984375 178.402344 195.992188 M 167.824219 196.015625 L 169.023438 195.859375 L 169.023438 189.84375 L 167.972656 189.265625 L 167.972656 188.808594 L 169.921875 188.222656 L 170.269531 188.371094 L 170.269531 189.507812 C 170.363281 189.371094 170.503906 189.226562 170.691406 189.074219 C 170.886719 188.921875 171.097656 188.78125 171.335938 188.660156 C 171.574219 188.53125 171.820312 188.429688 172.074219 188.347656 C 172.332031 188.265625 172.574219 188.222656 172.800781 188.222656 C 172.960938 188.222656 173.109375 188.230469 173.234375 188.238281 C 173.367188 188.242188 173.460938 188.253906 173.515625 188.273438 L 173.515625 189.789062 C 173.4375 189.761719 173.355469 189.730469 173.273438 189.703125 C 173.1875 189.667969 173.09375 189.640625 172.992188 189.621094 C 172.894531 189.597656 172.78125 189.578125 172.652344 189.5625 C 172.523438 189.546875 172.375 189.539062 172.207031 189.539062 C 171.808594 189.539062 171.472656 189.589844 171.203125 189.695312 C 170.929688 189.792969 170.683594 189.914062 170.457031 190.058594 L 170.457031 195.839844 L 172.5625 196.015625 L 172.5625 196.644531 L 167.824219 196.644531 L 167.824219 196.015625 M 158.042969 196.015625 L 159.441406 195.792969 L 159.441406 186.09375 L 158.21875 185.96875 L 158.21875 185.164062 L 160.164062 185.164062 C 160.285156 185.164062 160.441406 185.15625 160.636719 185.148438 C 160.835938 185.136719 161.050781 185.125 161.289062 185.109375 C 161.53125 185.097656 161.78125 185.082031 162.035156 185.074219 C 162.296875 185.0625 162.550781 185.058594 162.796875 185.058594 C 163.363281 185.058594 163.882812 185.113281 164.355469 185.222656 C 164.832031 185.332031 165.238281 185.515625 165.578125 185.785156 C 165.917969 186.042969 166.179688 186.394531 166.367188 186.832031 C 166.558594 187.273438 166.65625 187.824219 166.65625 188.488281 C 166.65625 188.890625 166.597656 189.261719 166.488281 189.605469 C 166.378906 189.949219 166.226562 190.265625 166.027344 190.542969 C 165.832031 190.824219 165.597656 191.074219 165.324219 191.292969 C 165.054688 191.507812 164.761719 191.6875 164.445312 191.832031 C 164.128906 191.972656 163.796875 192.082031 163.441406 192.15625 C 163.089844 192.226562 162.734375 192.253906 162.375 192.246094 C 162 192.234375 161.699219 192.234375 161.464844 192.238281 C 161.234375 192.242188 161.039062 192.257812 160.882812 192.28125 L 160.882812 195.792969 L 162.855469 196.015625 L 162.855469 196.644531 L 158.042969 196.644531 L 158.042969 196.015625 M 160.882812 191.410156 C 161.164062 191.449219 161.421875 191.472656 161.660156 191.484375 C 161.898438 191.488281 162.132812 191.492188 162.355469 191.492188 C 162.589844 191.492188 162.824219 191.476562 163.054688 191.445312 C 163.292969 191.414062 163.515625 191.355469 163.722656 191.277344 C 163.933594 191.191406 164.128906 191.082031 164.304688 190.945312 C 164.488281 190.800781 164.644531 190.617188 164.769531 190.398438 C 164.902344 190.175781 165.007812 189.910156 165.082031 189.605469 C 165.15625 189.296875 165.191406 188.929688 165.191406 188.511719 C 165.191406 187.605469 164.9375 186.933594 164.421875 186.492188 C 163.917969 186.054688 163.1875 185.851562 162.234375 185.878906 C 161.992188 185.890625 161.761719 185.902344 161.539062 185.925781 C 161.324219 185.9375 161.105469 185.972656 160.882812 186.027344 L 160.882812 191.410156 "/>
</g>
<g clip-path="url(#clip-1)">
<path fill-rule="nonzero" fill="rgb(0%, 0%, 0%)" fill-opacity="1" d="M 20.417969 1.488281 C 22.496094 5.234375 24.65625 8.457031 26.910156 11.230469 L 26.9375 11.257812 C 26.945312 11.269531 26.957031 11.277344 26.964844 11.285156 C 25.925781 11.132812 24.855469 11.027344 23.746094 11.039062 C 21.550781 11.0625 19.191406 11.441406 16.652344 12.242188 C 21.015625 15.894531 24.734375 18.570312 28 20.644531 C 27.921875 20.617188 27.835938 20.589844 27.753906 20.5625 L 28 20.699219 C 22.9375 19.113281 17.476562 18.921875 11.085938 21.953125 C 15.675781 24.828125 19.527344 26.921875 22.925781 28.503906 C 22.828125 28.488281 22.726562 28.460938 22.628906 28.449219 L 22.871094 28.585938 C 17.574219 27.671875 12.078125 28.183594 6.09375 32.132812 C 9.996094 33.871094 13.386719 35.183594 16.40625 36.195312 L 16.433594 36.195312 L 16.625 36.304688 C 11.574219 36.503906 6.566406 38.074219 1.671875 42.71875 C 5.949219 43.777344 9.609375 44.488281 12.832031 44.957031 C 12.742188 44.972656 12.648438 44.992188 12.558594 45.011719 C 12.433594 45.007812 12.300781 45.011719 12.175781 45.011719 L 12.3125 45.066406 C 8.546875 45.921875 4.875 47.808594 1.289062 51.421875 C 4.195312 52.050781 6.808594 52.539062 9.203125 52.894531 C 6.257812 54.320312 3.457031 56.527344 0.910156 59.910156 C 4.257812 60.167969 7.222656 60.277344 9.886719 60.289062 C 6.664062 61.78125 3.625 64.121094 0.933594 67.902344 C 5.71875 68.140625 9.714844 68.132812 13.160156 67.929688 C 13.09375 67.957031 13.03125 67.984375 12.96875 68.011719 C 12.757812 68.03125 12.546875 68.042969 12.339844 68.066406 L 12.640625 68.175781 C 9.058594 69.75 5.742188 72.296875 2.898438 76.605469 C 8.84375 76.695312 13.550781 76.414062 17.496094 75.925781 C 17.375 75.957031 17.261719 76 17.140625 76.035156 C 16.988281 76.042969 16.828125 76.050781 16.679688 76.0625 L 16.871094 76.117188 C 12.214844 77.503906 7.914062 80.175781 4.347656 85.582031 C 9.144531 85.652344 13.15625 85.472656 16.597656 85.148438 C 16.523438 85.1875 16.453125 85.242188 16.378906 85.285156 C 12.265625 87.578125 8.730469 91.023438 6.390625 96.851562 C 10.613281 96.054688 14.152344 95.210938 17.222656 94.316406 C 17.171875 94.355469 17.109375 94.382812 17.0625 94.425781 L 17.25 94.398438 C 14.089844 96.757812 11.429688 100.0625 9.640625 104.957031 C 12.546875 104.3125 15.144531 103.640625 17.46875 102.964844 C 15.378906 105.492188 13.765625 108.644531 12.859375 112.789062 C 16.015625 111.625 18.753906 110.507812 21.179688 109.402344 C 21.152344 109.4375 21.128906 109.480469 21.097656 109.511719 C 21.050781 109.550781 20.984375 109.582031 20.933594 109.621094 L 21.015625 109.59375 C 18.789062 112.265625 17.089844 115.621094 16.242188 120.074219 C 20.6875 118.296875 24.300781 116.589844 27.347656 114.96875 C 27.261719 115.054688 27.15625 115.132812 27.074219 115.214844 L 27.15625 115.1875 C 24.460938 118.144531 22.449219 121.941406 21.644531 127.167969 C 26.890625 124.851562 30.929688 122.699219 34.25 120.671875 C 34.214844 120.707031 34.175781 120.746094 34.140625 120.78125 L 34.359375 120.671875 C 30.589844 123.898438 27.699219 128.179688 26.691406 134.722656 C 33.761719 131.605469 38.707031 128.777344 42.546875 126.15625 C 40.898438 129.492188 40.027344 133.375 40.445312 138.246094 C 47.277344 133.003906 51.601562 128.777344 54.824219 125.039062 C 54.816406 125.09375 54.828125 125.148438 54.824219 125.203125 C 54.628906 127.570312 54.777344 130.140625 55.476562 132.976562 C 59.527344 126.019531 63.582031 123.132812 67.703125 120.753906 C 62.546875 124.097656 63.472656 126.804688 63.472656 129.894531 C 69.601562 123.441406 78.128906 116.585938 80.746094 112.296875 C 77.25 117.546875 75.851562 122.53125 74.933594 126.921875 C 57.046875 136.378906 46.132812 138.855469 33.921875 142.636719 C 38.660156 144.375 43.742188 146.0625 41.644531 148.476562 L 36.050781 154.070312 C 39.628906 152.957031 43.28125 151.355469 46.445312 153.523438 C 46.136719 156.457031 42.4375 157.953125 39.269531 159.664062 C 44.84375 157.65625 46.046875 158.128906 47.511719 158.597656 C 48.242188 162.113281 45.699219 164 44.046875 166.320312 C 58.082031 155.648438 76.386719 147.222656 89.285156 143.703125 C 107.425781 137.589844 130.835938 131.222656 137.199219 115.734375 L 143.554688 90.195312 C 151.015625 82.121094 157.875 73.765625 161.128906 63.589844 C 181.894531 59.574219 198.699219 61.011719 216.214844 61.464844 C 214.621094 61.195312 162.738281 52.40625 162.738281 52.40625 C 147.570312 31.652344 124.945312 45.765625 117.496094 66.265625 C 115.617188 71.441406 104.890625 71.429688 101.78125 66.238281 C 89.492188 39.78125 52.175781 11.800781 20.417969 1.492188 Z M 20.417969 1.488281 "/>
</g>
<path fill-rule="nonzero" fill="rgb(0%, 50.195312%, 50.195312%)" fill-opacity="1" d="M 20.054688 0 C 22.148438 3.769531 24.324219 6.988281 26.59375 9.773438 C 25.554688 9.621094 24.484375 9.535156 23.375 9.546875 C 21.179688 9.570312 18.832031 9.933594 16.292969 10.734375 C 20.726562 14.449219 24.476562 17.160156 27.78125 19.246094 C 22.675781 17.617188 17.171875 17.382812 10.710938 20.449219 C 15.429688 23.402344 19.394531 25.539062 22.859375 27.132812 C 17.453125 26.136719 11.847656 26.589844 5.730469 30.625 C 9.769531 32.425781 13.261719 33.777344 16.363281 34.804688 C 11.273438 34.980469 6.238281 36.554688 1.308594 41.230469 C 5.585938 42.289062 9.25 42.992188 12.472656 43.460938 C 8.527344 44.257812 4.65625 46.148438 0.910156 49.929688 C 3.8125 50.558594 6.429688 51.03125 8.820312 51.390625 C 5.875 52.8125 3.085938 55.019531 0.535156 58.402344 C 3.882812 58.660156 6.847656 58.777344 9.507812 58.789062 C 6.285156 60.277344 3.269531 62.632812 0.578125 66.414062 C 5.359375 66.65625 9.355469 66.632812 12.800781 66.429688 C 9.015625 67.976562 5.523438 70.59375 2.539062 75.117188 C 8.480469 75.203125 13.1875 74.917969 17.136719 74.429688 C 12.238281 75.757812 7.703125 78.433594 3.96875 84.089844 C 8.769531 84.160156 12.777344 83.984375 16.21875 83.660156 C 12.011719 85.953125 8.398438 89.433594 6.015625 95.367188 C 10.347656 94.546875 13.980469 93.667969 17.109375 92.746094 C 13.851562 95.117188 11.113281 98.445312 9.28125 103.453125 C 12.1875 102.808594 14.765625 102.136719 17.09375 101.460938 C 15.003906 103.988281 13.394531 107.148438 12.484375 111.292969 C 15.640625 110.132812 18.371094 109.003906 20.800781 107.902344 C 18.492188 110.601562 16.730469 114.019531 15.863281 118.578125 C 20.304688 116.800781 23.921875 115.101562 26.96875 113.484375 C 24.175781 116.46875 22.097656 120.308594 21.273438 125.660156 C 26.683594 123.273438 30.832031 121.0625 34.207031 118.980469 C 30.332031 122.226562 27.351562 126.546875 26.324219 133.21875 C 33.394531 130.097656 38.328125 127.265625 42.164062 124.644531 C 40.515625 127.980469 39.644531 131.882812 40.0625 136.753906 C 46.894531 131.511719 51.222656 127.265625 54.441406 123.53125 C 54.226562 125.941406 54.398438 128.570312 55.117188 131.472656 C 60.019531 123.042969 64.894531 120.585938 69.941406 117.773438 C 61.90625 121.816406 63.097656 124.863281 63.097656 128.394531 C 69.226562 121.941406 77.773438 115.09375 80.390625 110.808594 C 76.894531 116.058594 75.46875 121.03125 74.550781 125.417969 C 56.664062 134.878906 45.773438 137.347656 33.566406 141.132812 C 38.300781 142.867188 43.375 144.570312 41.277344 146.984375 L 35.683594 152.566406 C 39.257812 151.453125 42.90625 149.867188 46.070312 152.035156 C 45.761719 154.96875 42.054688 156.449219 38.886719 158.160156 C 44.460938 156.152344 45.664062 156.617188 47.128906 157.085938 C 47.863281 160.601562 45.324219 162.492188 43.667969 164.816406 C 57.703125 154.140625 76.019531 145.710938 88.917969 142.191406 C 107.058594 136.078125 130.453125 129.730469 136.816406 114.242188 L 143.199219 88.695312 C 150.65625 80.625 157.515625 72.253906 160.773438 62.078125 C 181.539062 58.0625 198.332031 59.511719 215.851562 59.960938 C 214.257812 59.695312 162.359375 50.902344 162.359375 50.902344 C 147.195312 30.152344 124.585938 44.257812 117.136719 64.753906 C 115.257812 69.929688 104.535156 69.929688 101.425781 64.742188 C 89.136719 38.28125 51.816406 10.308594 20.054688 0 Z M 20.054688 0 "/>
<path fill-rule="nonzero" fill="rgb(100%, 100%, 100%)" fill-opacity="1" d="M 142.585938 54.148438 L 142.449219 54.367188 C 141.910156 55.371094 141 56.054688 139.71875 56.46875 C 138.441406 56.882812 136.800781 57.015625 134.890625 56.933594 L 133.691406 56.878906 L 134.5625 57.726562 C 135.007812 58.152344 135.128906 58.492188 135.136719 58.789062 C 135.144531 59.085938 135.015625 59.40625 134.726562 59.769531 C 134.152344 60.5 133.011719 61.289062 131.945312 62.089844 L 131.589844 62.335938 L 131.835938 62.691406 C 132.722656 64.054688 133.132812 65.105469 133.226562 65.910156 C 133.320312 66.714844 133.132812 67.292969 132.761719 67.792969 C 132.019531 68.789062 130.386719 69.464844 128.914062 70.304688 L 128.644531 70.441406 L 128.699219 70.765625 C 128.824219 71.535156 128.617188 72.160156 128.070312 72.785156 C 127.523438 73.410156 126.601562 74.007812 125.367188 74.53125 L 125.042969 74.667969 L 125.09375 75.023438 C 125.339844 76.667969 125.835938 78.097656 126.871094 79.007812 C 127.816406 79.839844 129.246094 80.0625 131.070312 79.691406 C 131.390625 81.441406 131.84375 83.03125 132.898438 84.082031 C 133.96875 85.144531 135.660156 85.460938 137.917969 84.875 C 138.429688 86.101562 139.171875 86.972656 140.019531 87.546875 C 140.953125 88.175781 142.171875 88.429688 143.171875 88.742188 L 143.765625 88.105469 C 142.769531 87.796875 141.304688 87.320312 140.511719 86.785156 C 139.71875 86.25 139.078125 85.515625 138.628906 84.246094 L 138.492188 83.808594 L 138.054688 83.945312 C 135.730469 84.660156 134.441406 84.339844 133.554688 83.453125 C 132.667969 82.570312 132.167969 80.972656 131.863281 79.117188 L 131.78125 78.625 L 131.289062 78.761719 C 129.371094 79.261719 128.242188 79.007812 127.46875 78.324219 C 126.75 77.6875 126.320312 76.5625 126.078125 75.160156 C 127.1875 74.648438 128.140625 74.085938 128.753906 73.386719 C 129.351562 72.703125 129.609375 71.859375 129.570312 70.984375 C 130.925781 70.242188 132.558594 69.601562 133.5 68.339844 C 133.992188 67.679688 134.246094 66.8125 134.128906 65.800781 C 134.019531 64.882812 133.566406 63.820312 132.789062 62.554688 C 133.746094 61.851562 134.78125 61.148438 135.4375 60.316406 C 135.800781 59.855469 136.074219 59.34375 136.0625 58.761719 C 136.058594 58.441406 135.75 58.148438 135.574219 57.835938 C 137.234375 57.855469 138.746094 57.746094 139.992188 57.34375 C 141.308594 56.917969 142.339844 56.144531 143.023438 55.078125 C 144.988281 55.089844 147.019531 55.519531 149.078125 55.789062 C 151.195312 56.0625 153.34375 56.136719 155.382812 55.242188 L 155 54.394531 C 153.199219 55.1875 151.273438 55.15625 149.214844 54.886719 C 147.160156 54.621094 145.015625 54.136719 142.859375 54.152344 L 142.585938 54.152344 Z M 142.585938 54.148438 "/>
<path fill-rule="nonzero" fill="rgb(100%, 100%, 100%)" fill-opacity="1" stroke-width="0.915699" stroke-linecap="butt" stroke-linejoin="miter" stroke="rgb(100%, 100%, 100%)" stroke-opacity="1" stroke-miterlimit="4" d="M 150.222656 -53.8125 C 150.222656 -55.953125 148.484375 -57.6875 146.34375 -57.6875 C 144.203125 -57.6875 142.46875 -55.953125 142.46875 -53.8125 C 142.46875 -51.667969 144.203125 -49.933594 146.34375 -49.933594 C 148.484375 -49.933594 150.222656 -51.667969 150.222656 -53.8125 Z M 150.222656 -53.8125 " transform="matrix(1, 0, 0, -1, 0, 0)"/>
<path fill-rule="nonzero" fill="rgb(100%, 100%, 100%)" fill-opacity="1" d="M 161.800781 50.171875 C 158.320312 54.703125 157.445312 53.53125 155.324219 54.292969 L 154.972656 54.425781 L 155.027344 54.808594 C 155.839844 59.359375 158.535156 60.804688 160.640625 62.457031 L 160.757812 62.089844 L 161.316406 61.980469 C 159.207031 60.324219 156.902344 58.921875 156.0625 55.054688 C 157.605469 54.691406 159.078125 55.15625 162.363281 50.878906 Z M 161.800781 50.171875 "/>
<path fill-rule="nonzero" fill="rgb(100%, 100%, 100%)" fill-opacity="1" d="M 27.777344 19.238281 C 34.355469 23.316406 45.179688 27.519531 52.132812 31.914062 C 55.957031 34.347656 59.390625 36.777344 62.0625 38.871094 C 64.734375 40.96875 66.710938 43.132812 67.4375 43.835938 C 68.167969 44.542969 68.660156 44.210938 68.175781 43.292969 C 67.691406 42.375 65.3125 40.253906 62.609375 38.136719 C 59.90625 36.015625 56.46875 33.601562 52.625 31.148438 C 44.929688 26.25 35.898438 21.871094 27.777344 19.238281 Z M 27.777344 19.238281 "/>
<path fill-rule="nonzero" fill="rgb(100%, 100%, 100%)" fill-opacity="1" d="M 26.59375 9.773438 C 29.351562 10.410156 33.421875 12.761719 37.945312 15.277344 C 42.472656 17.792969 47.402344 20.886719 51.917969 23.898438 C 56.429688 26.910156 59.910156 29.542969 62.691406 31.664062 C 65.332031 33.925781 66.636719 35.390625 67.140625 35.386719 C 67.210938 35.398438 67.277344 35.402344 67.386719 35.386719 C 67.496094 35.371094 67.675781 35.289062 67.769531 35.113281 C 67.859375 34.9375 67.824219 34.792969 67.796875 34.703125 C 67.765625 34.613281 67.75 34.570312 67.714844 34.511719 C 67.566406 34.289062 67.335938 34.078125 67.003906 33.777344 C 66.339844 33.171875 65.242188 32.28125 63.839844 31.210938 C 61.035156 29.070312 56.960938 26.15625 52.433594 23.132812 C 47.90625 20.113281 42.941406 16.992188 38.382812 14.457031 C 36.761719 13.855469 28.820312 9.65625 26.59375 9.773438 Z M 26.59375 9.773438 "/>
<path fill-rule="nonzero" fill="rgb(100%, 100%, 100%)" fill-opacity="1" d="M 22.828125 27.136719 C 31.269531 30.582031 43.277344 34.628906 51.292969 39.667969 C 55.601562 42.402344 59.351562 45.125 62.152344 47.363281 C 63.554688 48.480469 64.722656 49.484375 65.589844 50.28125 C 66.457031 51.078125 66.945312 51.800781 67.226562 52 C 67.816406 52.414062 68.265625 52.140625 67.992188 51.480469 C 67.785156 50.984375 67.105469 50.414062 66.21875 49.597656 C 65.328125 48.78125 64.140625 47.78125 62.726562 46.652344 C 59.898438 44.394531 56.121094 41.628906 51.785156 38.875 C 43.109375 33.367188 32.738281 28.523438 22.828125 27.136719 Z M 22.828125 27.136719 "/>
<path fill-rule="nonzero" fill="rgb(100%, 100%, 100%)" fill-opacity="1" d="M 16.332031 34.792969 C 22.910156 34.796875 36.5 40.820312 42.226562 43.835938 C 51.515625 48.789062 59.960938 55.15625 64.628906 59.609375 C 65.148438 60.101562 65.902344 59.664062 65.3125 58.980469 C 60.976562 53.957031 52.019531 48.035156 42.664062 43.046875 C 33.308594 38.054688 23.621094 34.785156 16.328125 34.792969 Z M 16.332031 34.792969 "/>
<path fill-rule="nonzero" fill="rgb(100%, 100%, 100%)" fill-opacity="1" d="M 12.527344 43.457031 C 22.417969 44.90625 34.277344 48.898438 42.914062 53.222656 C 47.734375 55.671875 52.03125 58.292969 55.328125 60.617188 C 58.625 62.945312 61.058594 65.5625 61.660156 66.238281 C 62.257812 66.917969 62.976562 66.945312 62.421875 65.746094 C 61.871094 64.550781 59.1875 62.210938 55.847656 59.855469 C 52.507812 57.5 48.179688 54.871094 43.324219 52.40625 C 33.605469 47.472656 22.542969 43.589844 12.527344 43.457031 Z M 12.527344 43.457031 "/>
<path fill-rule="nonzero" fill="rgb(100%, 100%, 100%)" fill-opacity="1" d="M 15.792969 50.820312 C 13.335938 50.605469 11.125 51.109375 8.871094 51.390625 C 17.660156 50.566406 29.949219 54.601562 38.140625 58.378906 C 47.789062 62.902344 55.804688 69.113281 59.640625 73.058594 C 60.242188 73.675781 60.667969 72.886719 60.351562 72.484375 C 56.777344 67.921875 48.265625 62.101562 38.523438 57.53125 C 31.214844 54.105469 23.164062 51.464844 15.792969 50.820312 Z M 15.792969 50.820312 "/>
<path fill-rule="nonzero" fill="rgb(100%, 100%, 100%)" fill-opacity="1" d="M 9.550781 58.742188 C 18.199219 59.382812 29.777344 61.453125 37.886719 65.175781 C 46.042969 68.992188 52.234375 73.9375 55.347656 76.746094 C 55.828125 77.175781 56.675781 76.871094 56.003906 76.089844 C 53.160156 72.789062 46.550781 68.21875 38.296875 64.359375 C 30.039062 60.496094 20.007812 58.023438 9.550781 58.742188 Z M 9.550781 58.742188 "/>
<path fill-rule="nonzero" fill="rgb(100%, 100%, 100%)" fill-opacity="1" d="M 17.316406 65.9375 C 15.492188 65.875 14.636719 66.21875 12.875 66.40625 C 18.746094 66.667969 28.074219 68.226562 33.222656 69.976562 C 39.910156 72.296875 45.40625 75.789062 48.53125 78.515625 C 49.136719 79.042969 49.585938 78.335938 49.1875 77.890625 C 46.257812 74.601562 40.308594 71.457031 33.523438 69.101562 C 28.4375 67.339844 22.789062 66.121094 17.316406 65.9375 Z M 17.316406 65.9375 "/>
<path fill-rule="nonzero" fill="rgb(100%, 100%, 100%)" fill-opacity="1" d="M 17.0625 74.449219 C 29.613281 75.296875 37.199219 77.507812 43.015625 82.71875 C 43.449219 83.109375 44.140625 82.570312 43.671875 82.0625 C 37.703125 75.597656 25.949219 73.792969 17.0625 74.449219 Z M 17.0625 74.449219 "/>
<path fill-rule="nonzero" fill="rgb(100%, 100%, 100%)" fill-opacity="1" d="M 26.726562 81.988281 C 22.921875 81.679688 19.738281 82.511719 16.273438 83.667969 C 26.417969 82.050781 30.636719 82.824219 38.320312 86.433594 C 39.199219 86.84375 39.148438 85.875 38.757812 85.644531 C 34.675781 83.1875 30.53125 82.292969 26.726562 81.988281 Z M 26.726562 81.988281 "/>
<path fill-rule="nonzero" fill="rgb(100%, 100%, 100%)" fill-opacity="1" d="M 26.363281 89.050781 C 22.769531 89.371094 19.714844 90.605469 17.195312 92.65625 C 27.242188 88.78125 30.019531 89.550781 37.703125 91.730469 C 38.714844 92.015625 38.398438 91.042969 38.003906 90.886719 C 33.402344 89.039062 29.960938 88.734375 26.363281 89.050781 Z M 26.363281 89.050781 "/>
<path fill-rule="nonzero" fill="rgb(100%, 100%, 100%)" fill-opacity="1" d="M 46.269531 95.273438 C 40.910156 94.695312 34.871094 95.34375 29.570312 96.3125 C 24.273438 97.277344 19.714844 99.242188 17.140625 101.335938 C 25.953125 97.613281 27.558594 97.621094 29.734375 97.210938 C 34.957031 96.261719 40.132812 95.890625 46.214844 96.175781 C 46.769531 96.203125 46.738281 95.324219 46.269531 95.273438 Z M 46.269531 95.273438 "/>
<path fill-rule="nonzero" fill="rgb(100%, 100%, 100%)" fill-opacity="1" d="M 49.382812 99.613281 C 43.574219 99.394531 37.574219 100.832031 32.382812 102.316406 C 27.191406 103.796875 23.339844 105.820312 20.800781 107.886719 C 25.941406 105.414062 30.722656 103.742188 32.628906 103.1875 C 37.746094 101.726562 42.90625 100.457031 49.4375 100.539062 C 49.941406 100.546875 50.269531 99.648438 49.382812 99.613281 Z M 49.382812 99.613281 "/>
<path fill-rule="nonzero" fill="rgb(100%, 100%, 100%)" fill-opacity="1" d="M 54.125 103.183594 C 48.652344 103.992188 42.917969 105.609375 37.917969 107.304688 C 32.917969 109 29.355469 111.015625 27.035156 113.429688 C 32.984375 110.015625 36.253906 108.816406 38.191406 108.152344 C 43.128906 106.476562 47.742188 105.308594 54.289062 104.085938 C 55.074219 103.9375 54.441406 103.136719 54.125 103.183594 Z M 54.125 103.183594 "/>
<path fill-rule="nonzero" fill="rgb(100%, 100%, 100%)" fill-opacity="1" d="M 56.90625 107.742188 C 45.9375 109.488281 38.824219 114.222656 34.308594 118.917969 C 41.308594 113.640625 46.183594 110.804688 57.097656 108.640625 C 57.789062 108.503906 57.578125 107.632812 56.90625 107.742188 Z M 56.90625 107.742188 "/>
<path fill-rule="nonzero" fill="rgb(100%, 100%, 100%)" fill-opacity="1" d="M 62.253906 111.75 C 51.21875 113.449219 44.855469 120.160156 42.203125 124.585938 C 49.1875 117.613281 54.621094 113.816406 62.445312 112.652344 C 63.234375 112.535156 63.035156 111.632812 62.253906 111.75 Z M 62.253906 111.75 "/>
<path fill-rule="nonzero" fill="rgb(100%, 100%, 100%)" fill-opacity="1" d="M 65.582031 115.246094 C 63.863281 115.460938 61.519531 116.679688 59.308594 118.082031 C 57.09375 119.488281 55.425781 121.195312 54.429688 123.398438 C 57.09375 120.644531 58.164062 119.902344 59.800781 118.847656 C 61.921875 117.5 64.0625 116.652344 65.800781 116.144531 C 66.617188 115.910156 66 115.195312 65.582031 115.246094 Z M 65.582031 115.246094 "/>
<path fill-rule="nonzero" fill="rgb(100%, 100%, 100%)" fill-opacity="1" stroke-width="0.915699" stroke-linecap="butt" stroke-linejoin="miter" stroke="rgb(100%, 100%, 100%)" stroke-opacity="1" stroke-miterlimit="4" d="M 150.222656 -53.8125 C 150.222656 -55.953125 148.484375 -57.6875 146.34375 -57.6875 C 144.203125 -57.6875 142.46875 -55.953125 142.46875 -53.8125 C 142.46875 -51.667969 144.203125 -49.933594 146.34375 -49.933594 C 148.484375 -49.933594 150.222656 -51.667969 150.222656 -53.8125 Z M 150.222656 -53.8125 " transform="matrix(1, 0, 0, -1, 0, 0)"/>
<path fill-rule="nonzero" fill="rgb(21.568298%, 78.430176%, 44.313049%)" fill-opacity="1" stroke-width="0.915699" stroke-linecap="butt" stroke-linejoin="miter" stroke="rgb(100%, 100%, 100%)" stroke-opacity="1" stroke-miterlimit="4" d="M 150.222656 -53.8125 C 150.222656 -55.953125 148.484375 -57.6875 146.34375 -57.6875 C 144.203125 -57.6875 142.46875 -55.953125 142.46875 -53.8125 C 142.46875 -51.667969 144.203125 -49.933594 146.34375 -49.933594 C 148.484375 -49.933594 150.222656 -51.667969 150.222656 -53.8125 Z M 150.222656 -53.8125 " transform="matrix(1, 0, 0, -1, 0, 0)"/>
</svg>
