<?xml version="1.0" encoding="UTF-8"?>
<svg xmlns="http://www.w3.org/2000/svg" xmlns:xlink="http://www.w3.org/1999/xlink" width="237.300751pt" height="90pt" viewBox="0 0 237.300751 90">
<defs>
<clipPath id="clip-0">
<path clip-rule="nonzero" d="M 195 63 L 237.300781 63 L 237.300781 65 L 195 65 Z M 195 63 "/>
</clipPath>
</defs>
<path fill-rule="nonzero" fill="rgb(0%, 0%, 0%)" fill-opacity="1" d="M 195.3125 57.800781 L 196.324219 57.640625 L 196.324219 50.613281 L 195.441406 50.519531 L 195.441406 49.9375 L 196.847656 49.9375 C 196.933594 49.9375 197.046875 49.933594 197.191406 49.925781 C 197.332031 49.917969 197.492188 49.910156 197.664062 49.898438 C 197.835938 49.886719 198.019531 49.878906 198.203125 49.871094 C 198.394531 49.863281 198.578125 49.863281 198.753906 49.863281 C 199.164062 49.863281 199.542969 49.902344 199.886719 49.980469 C 200.226562 50.058594 200.523438 50.195312 200.769531 50.386719 C 201.015625 50.574219 201.207031 50.828125 201.34375 51.148438 C 201.480469 51.464844 201.550781 51.863281 201.550781 52.347656 C 201.550781 52.636719 201.511719 52.90625 201.429688 53.15625 C 201.347656 53.40625 201.238281 53.632812 201.097656 53.835938 C 200.953125 54.039062 200.785156 54.21875 200.585938 54.375 C 200.390625 54.535156 200.179688 54.664062 199.949219 54.769531 C 199.722656 54.871094 199.476562 54.949219 199.222656 55.003906 C 198.96875 55.054688 198.710938 55.074219 198.449219 55.066406 C 198.179688 55.0625 197.957031 55.058594 197.792969 55.0625 C 197.625 55.066406 197.480469 55.078125 197.367188 55.09375 L 197.367188 57.640625 L 198.796875 57.800781 L 198.796875 58.253906 L 195.3125 58.253906 L 195.3125 57.800781 M 197.367188 54.460938 C 197.570312 54.492188 197.757812 54.507812 197.929688 54.515625 C 198.105469 54.519531 198.273438 54.519531 198.433594 54.519531 C 198.605469 54.519531 198.773438 54.511719 198.941406 54.488281 C 199.113281 54.464844 199.273438 54.421875 199.425781 54.367188 C 199.578125 54.304688 199.71875 54.226562 199.847656 54.125 C 199.980469 54.023438 200.09375 53.890625 200.183594 53.730469 C 200.28125 53.566406 200.355469 53.378906 200.410156 53.15625 C 200.464844 52.929688 200.492188 52.667969 200.492188 52.363281 C 200.492188 51.707031 200.304688 51.21875 199.933594 50.902344 C 199.566406 50.582031 199.039062 50.433594 198.347656 50.457031 C 198.171875 50.464844 198.003906 50.472656 197.84375 50.488281 C 197.6875 50.5 197.527344 50.523438 197.367188 50.5625 L 197.367188 54.460938 "/>
<path fill-rule="nonzero" fill="rgb(0%, 0%, 0%)" fill-opacity="1" d="M 202.398438 57.800781 L 203.265625 57.6875 L 203.265625 53.328125 L 202.503906 52.910156 L 202.503906 52.578125 L 203.917969 52.152344 L 204.171875 52.261719 L 204.171875 53.085938 C 204.238281 52.984375 204.339844 52.878906 204.476562 52.769531 C 204.613281 52.660156 204.769531 52.558594 204.941406 52.46875 C 205.113281 52.378906 205.292969 52.300781 205.476562 52.246094 C 205.664062 52.183594 205.835938 52.152344 206 52.152344 C 206.121094 52.152344 206.226562 52.15625 206.316406 52.164062 C 206.414062 52.167969 206.480469 52.175781 206.519531 52.191406 L 206.519531 53.289062 C 206.464844 53.269531 206.40625 53.246094 206.34375 53.226562 C 206.285156 53.199219 206.214844 53.179688 206.140625 53.167969 C 206.070312 53.148438 205.988281 53.132812 205.894531 53.125 C 205.800781 53.113281 205.695312 53.109375 205.574219 53.109375 C 205.285156 53.109375 205.042969 53.144531 204.84375 53.21875 C 204.648438 53.292969 204.46875 53.378906 204.304688 53.480469 L 204.304688 57.671875 L 205.832031 57.800781 L 205.832031 58.253906 L 202.398438 58.253906 L 202.398438 57.800781 "/>
<path fill-rule="nonzero" fill="rgb(0%, 0%, 0%)" fill-opacity="1" d="M 207.296875 55.136719 C 207.304688 54.660156 207.386719 54.230469 207.542969 53.855469 C 207.703125 53.480469 207.914062 53.160156 208.175781 52.898438 C 208.4375 52.636719 208.738281 52.4375 209.074219 52.296875 C 209.417969 52.160156 209.777344 52.089844 210.148438 52.085938 C 210.601562 52.082031 210.996094 52.160156 211.332031 52.320312 C 211.667969 52.480469 211.941406 52.703125 212.160156 52.984375 C 212.382812 53.261719 212.546875 53.589844 212.652344 53.96875 C 212.761719 54.347656 212.8125 54.753906 212.808594 55.1875 C 212.804688 55.660156 212.730469 56.09375 212.578125 56.488281 C 212.433594 56.878906 212.230469 57.21875 211.980469 57.5 C 211.730469 57.777344 211.433594 57.996094 211.09375 58.152344 C 210.757812 58.304688 210.398438 58.382812 210.011719 58.382812 C 209.519531 58.382812 209.101562 58.292969 208.753906 58.117188 C 208.40625 57.9375 208.125 57.699219 207.90625 57.398438 C 207.691406 57.097656 207.53125 56.753906 207.429688 56.363281 C 207.335938 55.972656 207.289062 55.5625 207.296875 55.136719 M 210.0625 57.785156 C 210.363281 57.789062 210.621094 57.738281 210.828125 57.628906 C 211.039062 57.515625 211.207031 57.355469 211.335938 57.140625 C 211.46875 56.921875 211.5625 56.65625 211.621094 56.335938 C 211.679688 56.015625 211.710938 55.648438 211.710938 55.234375 C 211.710938 54.875 211.679688 54.539062 211.613281 54.226562 C 211.554688 53.914062 211.457031 53.640625 211.320312 53.40625 C 211.1875 53.175781 211.019531 52.992188 210.8125 52.859375 C 210.609375 52.726562 210.363281 52.652344 210.082031 52.648438 C 209.78125 52.644531 209.519531 52.695312 209.304688 52.808594 C 209.09375 52.914062 208.921875 53.074219 208.785156 53.285156 C 208.652344 53.496094 208.550781 53.753906 208.488281 54.054688 C 208.425781 54.359375 208.394531 54.703125 208.394531 55.089844 C 208.394531 55.4375 208.429688 55.769531 208.496094 56.089844 C 208.566406 56.414062 208.667969 56.699219 208.800781 56.949219 C 208.9375 57.195312 209.109375 57.394531 209.316406 57.546875 C 209.527344 57.699219 209.777344 57.777344 210.0625 57.785156 "/>
<path fill-rule="nonzero" fill="rgb(0%, 0%, 0%)" fill-opacity="1" d="M 215.085938 50.734375 C 215 50.734375 214.914062 50.722656 214.832031 50.691406 C 214.75 50.660156 214.675781 50.617188 214.613281 50.5625 C 214.550781 50.507812 214.503906 50.4375 214.464844 50.355469 C 214.425781 50.273438 214.410156 50.179688 214.410156 50.078125 C 214.410156 49.964844 214.433594 49.863281 214.480469 49.765625 C 214.53125 49.667969 214.59375 49.585938 214.667969 49.519531 C 214.742188 49.449219 214.824219 49.390625 214.917969 49.351562 C 215.015625 49.3125 215.113281 49.292969 215.207031 49.292969 C 215.445312 49.292969 215.613281 49.359375 215.722656 49.492188 C 215.832031 49.621094 215.886719 49.777344 215.886719 49.957031 C 215.886719 50.078125 215.863281 50.183594 215.820312 50.28125 C 215.773438 50.375 215.710938 50.457031 215.636719 50.527344 C 215.5625 50.589844 215.476562 50.640625 215.378906 50.679688 C 215.28125 50.71875 215.183594 50.734375 215.085938 50.734375 M 214.8125 53.300781 L 214.066406 52.90625 L 214.066406 52.582031 L 215.570312 52.15625 L 215.820312 52.261719 L 215.820312 58.339844 C 215.820312 58.757812 215.773438 59.132812 215.679688 59.460938 C 215.589844 59.792969 215.460938 60.074219 215.289062 60.300781 C 215.121094 60.535156 214.917969 60.710938 214.675781 60.832031 C 214.4375 60.953125 214.171875 61.015625 213.875 61.015625 C 213.839844 61.015625 213.789062 61.011719 213.730469 61.007812 C 213.667969 61.003906 213.609375 61 213.546875 60.992188 C 213.492188 60.984375 213.4375 60.976562 213.386719 60.964844 C 213.335938 60.953125 213.304688 60.945312 213.289062 60.933594 L 213.289062 60.195312 C 213.320312 60.207031 213.359375 60.214844 213.414062 60.222656 C 213.46875 60.230469 213.523438 60.234375 213.578125 60.238281 C 213.640625 60.246094 213.699219 60.246094 213.75 60.246094 C 213.804688 60.25 213.847656 60.253906 213.878906 60.253906 C 214.050781 60.253906 214.195312 60.21875 214.3125 60.152344 C 214.433594 60.085938 214.53125 59.976562 214.601562 59.820312 C 214.675781 59.664062 214.730469 59.460938 214.761719 59.207031 C 214.796875 58.957031 214.8125 58.640625 214.8125 58.265625 L 214.8125 53.300781 "/>
<path fill-rule="nonzero" fill="rgb(0%, 0%, 0%)" fill-opacity="1" d="M 217.367188 55.277344 C 217.367188 54.820312 217.4375 54.398438 217.582031 54.011719 C 217.726562 53.628906 217.929688 53.292969 218.1875 53.011719 C 218.449219 52.730469 218.757812 52.507812 219.125 52.347656 C 219.488281 52.183594 219.890625 52.09375 220.328125 52.085938 C 220.644531 52.078125 220.925781 52.125 221.179688 52.222656 C 221.433594 52.320312 221.648438 52.464844 221.828125 52.65625 C 222.007812 52.851562 222.148438 53.085938 222.246094 53.363281 C 222.351562 53.644531 222.410156 53.960938 222.421875 54.3125 C 222.429688 54.539062 222.425781 54.730469 222.40625 54.898438 C 222.394531 55.0625 222.378906 55.207031 222.359375 55.335938 L 218.390625 55.335938 C 218.390625 55.355469 218.390625 55.378906 218.390625 55.398438 C 218.390625 55.417969 218.390625 55.4375 218.394531 55.457031 C 218.410156 55.890625 218.484375 56.25 218.613281 56.53125 C 218.746094 56.8125 218.910156 57.039062 219.109375 57.207031 C 219.308594 57.371094 219.527344 57.484375 219.765625 57.554688 C 220.007812 57.617188 220.238281 57.648438 220.46875 57.648438 C 220.609375 57.648438 220.753906 57.640625 220.90625 57.628906 C 221.0625 57.609375 221.210938 57.585938 221.351562 57.558594 C 221.5 57.527344 221.632812 57.492188 221.753906 57.453125 C 221.878906 57.414062 221.980469 57.371094 222.054688 57.328125 L 222.253906 57.785156 C 222.148438 57.875 222.011719 57.960938 221.84375 58.035156 C 221.679688 58.109375 221.5 58.175781 221.304688 58.226562 C 221.109375 58.277344 220.902344 58.316406 220.6875 58.339844 C 220.472656 58.371094 220.265625 58.382812 220.0625 58.382812 C 219.628906 58.382812 219.246094 58.308594 218.910156 58.164062 C 218.578125 58.015625 218.296875 57.804688 218.070312 57.539062 C 217.839844 57.265625 217.664062 56.9375 217.542969 56.558594 C 217.425781 56.175781 217.367188 55.75 217.367188 55.277344 M 221.332031 54.703125 C 221.339844 54.523438 221.34375 54.339844 221.335938 54.15625 C 221.332031 53.972656 221.3125 53.796875 221.273438 53.632812 C 221.230469 53.464844 221.171875 53.3125 221.089844 53.175781 C 221.011719 53.039062 220.902344 52.925781 220.769531 52.839844 C 220.675781 52.777344 220.570312 52.734375 220.453125 52.707031 C 220.335938 52.671875 220.199219 52.65625 220.050781 52.65625 C 219.851562 52.65625 219.65625 52.695312 219.464844 52.769531 C 219.28125 52.84375 219.113281 52.964844 218.964844 53.128906 C 218.816406 53.292969 218.695312 53.503906 218.59375 53.765625 C 218.492188 54.023438 218.429688 54.335938 218.402344 54.703125 L 221.332031 54.703125 "/>
<path fill-rule="nonzero" fill="rgb(0%, 0%, 0%)" fill-opacity="1" d="M 223.519531 55.375 C 223.515625 54.878906 223.589844 54.4375 223.742188 54.039062 C 223.890625 53.644531 224.09375 53.304688 224.355469 53.023438 C 224.621094 52.738281 224.929688 52.519531 225.28125 52.363281 C 225.640625 52.207031 226.023438 52.117188 226.433594 52.101562 C 226.585938 52.097656 226.734375 52.101562 226.890625 52.109375 C 227.046875 52.117188 227.191406 52.132812 227.328125 52.160156 C 227.46875 52.179688 227.59375 52.210938 227.710938 52.246094 C 227.824219 52.28125 227.917969 52.320312 227.988281 52.367188 L 227.988281 53.652344 L 227.480469 53.652344 L 227.207031 52.980469 C 227.148438 52.933594 227.082031 52.894531 227.007812 52.859375 C 226.933594 52.828125 226.855469 52.800781 226.777344 52.78125 C 226.699219 52.757812 226.621094 52.746094 226.542969 52.738281 C 226.464844 52.726562 226.390625 52.722656 226.328125 52.722656 C 226.089844 52.722656 225.859375 52.765625 225.640625 52.855469 C 225.425781 52.945312 225.230469 53.082031 225.0625 53.261719 C 224.894531 53.441406 224.761719 53.667969 224.660156 53.941406 C 224.5625 54.214844 224.511719 54.535156 224.507812 54.902344 C 224.503906 55.386719 224.558594 55.804688 224.675781 56.148438 C 224.796875 56.496094 224.949219 56.78125 225.136719 57 C 225.328125 57.21875 225.539062 57.378906 225.769531 57.484375 C 226.003906 57.582031 226.230469 57.632812 226.457031 57.632812 C 226.59375 57.632812 226.738281 57.625 226.890625 57.605469 C 227.039062 57.589844 227.183594 57.566406 227.324219 57.535156 C 227.464844 57.507812 227.589844 57.472656 227.710938 57.433594 C 227.828125 57.390625 227.921875 57.347656 228 57.308594 L 228.179688 57.785156 C 228.078125 57.875 227.949219 57.957031 227.796875 58.03125 C 227.640625 58.101562 227.472656 58.160156 227.285156 58.210938 C 227.105469 58.261719 226.910156 58.300781 226.707031 58.324219 C 226.507812 58.351562 226.304688 58.367188 226.101562 58.367188 C 225.6875 58.367188 225.320312 58.292969 225.003906 58.140625 C 224.6875 57.992188 224.417969 57.785156 224.195312 57.515625 C 223.976562 57.246094 223.8125 56.933594 223.699219 56.566406 C 223.582031 56.199219 223.523438 55.800781 223.519531 55.371094 "/>
<path fill-rule="nonzero" fill="rgb(0%, 0%, 0%)" fill-opacity="1" d="M 229.964844 56.851562 L 229.964844 54.894531 C 229.96875 54.246094 229.96875 53.59375 229.96875 52.9375 L 229.152344 52.9375 L 229.152344 52.535156 C 229.308594 52.496094 229.4375 52.464844 229.542969 52.441406 C 229.648438 52.417969 229.738281 52.390625 229.804688 52.363281 C 229.875 52.332031 229.933594 52.292969 229.980469 52.246094 C 230.027344 52.199219 230.070312 52.132812 230.109375 52.042969 C 230.132812 51.980469 230.164062 51.890625 230.199219 51.773438 C 230.238281 51.65625 230.277344 51.535156 230.308594 51.414062 C 230.34375 51.289062 230.375 51.175781 230.398438 51.066406 C 230.425781 50.957031 230.441406 50.878906 230.445312 50.832031 L 230.976562 50.832031 L 230.976562 52.261719 L 232.777344 52.261719 L 232.777344 52.9375 L 230.976562 52.9375 L 230.976562 55.636719 C 230.976562 56.050781 230.984375 56.386719 230.992188 56.648438 C 231.003906 56.90625 231.03125 57.105469 231.074219 57.253906 C 231.117188 57.398438 231.179688 57.5 231.261719 57.554688 C 231.34375 57.601562 231.457031 57.628906 231.605469 57.628906 C 231.695312 57.628906 231.792969 57.621094 231.898438 57.601562 C 232.007812 57.582031 232.113281 57.5625 232.214844 57.535156 C 232.316406 57.511719 232.414062 57.484375 232.5 57.457031 C 232.585938 57.425781 232.648438 57.394531 232.691406 57.367188 L 232.859375 57.835938 C 232.773438 57.925781 232.667969 58.003906 232.53125 58.074219 C 232.394531 58.140625 232.246094 58.199219 232.085938 58.242188 C 231.929688 58.289062 231.769531 58.324219 231.609375 58.347656 C 231.453125 58.371094 231.3125 58.382812 231.191406 58.382812 C 230.800781 58.382812 230.5 58.265625 230.285156 58.023438 C 230.070312 57.785156 229.964844 57.394531 229.964844 56.851562 "/>
<path fill-rule="nonzero" fill="rgb(0%, 0%, 0%)" fill-opacity="1" d="M 128.0625 56.375 L 127.261719 56.375 C 126.941406 59.644531 126.492188 63.625 120.84375 63.625 L 118.246094 63.625 C 116.738281 63.625 116.675781 63.398438 116.675781 62.339844 L 116.675781 45.308594 C 116.675781 44.21875 116.675781 43.769531 119.691406 43.769531 L 120.75 43.769531 L 120.75 42.804688 C 119.59375 42.902344 116.707031 42.902344 115.390625 42.902344 C 114.140625 42.902344 111.640625 42.902344 110.550781 42.804688 L 110.550781 43.769531 L 111.285156 43.769531 C 113.757812 43.769531 113.820312 44.121094 113.820312 45.277344 L 113.820312 62.117188 C 113.820312 63.269531 113.757812 63.625 111.285156 63.625 L 110.550781 63.625 L 110.550781 64.617188 L 127.195312 64.617188 C 127.195312 64.617188 128.0625 56.375 128.0625 56.375 Z M 128.0625 56.375 "/>
<path fill-rule="nonzero" fill="rgb(0%, 0%, 0%)" fill-opacity="1" d="M 127.515625 42.773438 C 127.386719 42.390625 127.324219 42.261719 126.90625 42.261719 C 126.492188 42.261719 126.394531 42.390625 126.265625 42.773438 C 126.265625 42.773438 121.101562 55.859375 121.101562 55.859375 C 120.878906 56.40625 120.492188 57.402344 118.503906 57.402344 L 118.503906 58.203125 L 123.476562 58.203125 L 123.476562 57.402344 C 122.480469 57.402344 121.871094 56.953125 121.871094 56.308594 C 121.871094 56.148438 121.902344 56.085938 121.96875 55.859375 C 121.96875 55.859375 123.058594 53.101562 123.058594 53.101562 L 129.410156 53.101562 C 129.410156 53.101562 130.691406 56.375 130.691406 56.375 C 130.757812 56.503906 130.820312 56.664062 130.820312 56.757812 C 130.820312 57.402344 129.601562 57.402344 128.992188 57.402344 L 128.992188 58.203125 L 135.3125 58.203125 L 135.3125 57.402344 L 134.863281 57.402344 C 133.355469 57.402344 133.195312 57.175781 132.96875 56.535156 C 132.96875 56.535156 127.515625 42.773438 127.515625 42.773438 Z M 126.234375 45.050781 C 126.234375 45.050781 129.089844 52.300781 129.089844 52.300781 L 123.378906 52.300781 C 123.378906 52.300781 126.234375 45.050781 126.234375 45.050781 Z M 126.234375 45.050781 "/>
<path fill-rule="nonzero" fill="rgb(0%, 0%, 0%)" fill-opacity="1" d="M 153.210938 43 L 133.675781 43 C 133.675781 43 133.097656 50.183594 133.097656 50.183594 L 133.867188 50.183594 C 134.316406 45.019531 134.796875 43.960938 139.640625 43.960938 C 140.21875 43.960938 141.050781 43.960938 141.375 44.027344 C 142.046875 44.152344 142.046875 44.507812 142.046875 45.246094 L 142.046875 62.082031 C 142.046875 63.175781 142.046875 63.625 138.679688 63.625 L 137.394531 63.625 L 137.394531 64.617188 C 138.710938 64.523438 141.949219 64.523438 143.425781 64.523438 C 144.902344 64.523438 148.207031 64.523438 149.519531 64.617188 L 149.519531 63.625 L 148.238281 63.625 C 144.871094 63.625 144.871094 63.175781 144.871094 62.082031 L 144.871094 45.246094 C 144.871094 44.601562 144.871094 44.152344 145.445312 44.027344 C 145.800781 43.960938 146.664062 43.960938 147.273438 43.960938 C 152.085938 43.960938 152.566406 45.019531 153.015625 50.183594 L 153.820312 50.183594 C 153.820312 50.183594 153.210938 43 153.210938 43 Z M 153.210938 43 "/>
<path fill-rule="nonzero" fill="rgb(0%, 0%, 0%)" fill-opacity="1" d="M 170.402344 63.589844 L 169.601562 63.589844 C 168.796875 68.5 168.058594 70.839844 162.574219 70.839844 L 158.339844 70.839844 C 156.832031 70.839844 156.769531 70.617188 156.769531 69.558594 L 156.769531 61.027344 L 159.625 61.027344 C 162.734375 61.027344 163.089844 62.050781 163.089844 64.777344 L 163.890625 64.777344 L 163.890625 56.308594 L 163.089844 56.308594 C 163.089844 59.035156 162.734375 60.03125 159.625 60.03125 L 156.769531 60.03125 L 156.769531 52.363281 C 156.769531 51.304688 156.832031 51.082031 158.339844 51.082031 L 162.445312 51.082031 C 167.355469 51.082031 168.1875 52.847656 168.703125 57.304688 L 169.503906 57.304688 C 169.503906 57.304688 168.605469 50.121094 168.605469 50.121094 L 150.644531 50.121094 L 150.644531 51.082031 L 151.382812 51.082031 C 153.851562 51.082031 153.914062 51.433594 153.914062 52.589844 L 153.914062 69.332031 C 153.914062 70.488281 153.851562 70.839844 151.382812 70.839844 L 150.644531 70.839844 L 150.644531 71.835938 L 169.054688 71.835938 C 169.054688 71.835938 170.402344 63.589844 170.402344 63.589844 Z M 170.402344 63.589844 "/>
<path fill-rule="nonzero" fill="rgb(0%, 0%, 0%)" fill-opacity="1" d="M 180.054688 52.269531 C 180.054688 52.269531 184.449219 45.855469 184.449219 45.855469 C 185.125 44.828125 186.214844 43.800781 189.070312 43.769531 L 189.070312 42.804688 L 181.4375 42.804688 L 181.4375 43.769531 C 182.71875 43.800781 183.425781 44.507812 183.425781 45.246094 C 183.425781 45.566406 183.359375 45.628906 183.136719 45.980469 C 183.136719 45.980469 179.480469 51.371094 179.480469 51.371094 C 179.480469 51.371094 175.375 45.210938 175.375 45.210938 C 175.308594 45.117188 175.148438 44.859375 175.148438 44.730469 C 175.148438 44.347656 175.855469 43.800781 177.203125 43.769531 L 177.203125 42.804688 C 176.109375 42.902344 173.769531 42.902344 172.550781 42.902344 C 171.554688 42.902344 169.566406 42.871094 168.382812 42.804688 L 168.382812 43.769531 L 168.992188 43.769531 C 170.753906 43.769531 171.363281 43.992188 171.972656 44.890625 C 171.972656 44.890625 177.84375 53.777344 177.84375 53.777344 C 177.84375 53.777344 172.613281 61.507812 172.613281 61.507812 C 172.164062 62.148438 171.203125 63.625 167.996094 63.625 L 167.996094 64.617188 L 175.628906 64.617188 L 175.628906 63.625 C 174.15625 63.589844 173.609375 62.726562 173.609375 62.148438 C 173.609375 61.859375 173.707031 61.730469 173.929688 61.378906 C 173.929688 61.378906 178.453125 54.675781 178.453125 54.675781 C 178.453125 54.675781 183.519531 62.308594 183.519531 62.308594 C 183.585938 62.4375 183.679688 62.566406 183.679688 62.660156 C 183.679688 63.046875 182.976562 63.589844 181.597656 63.625 L 181.597656 64.617188 C 182.71875 64.523438 185.058594 64.523438 186.246094 64.523438 C 187.59375 64.523438 189.070312 64.554688 190.417969 64.617188 L 190.417969 63.625 L 189.808594 63.625 C 188.140625 63.625 187.464844 63.464844 186.792969 62.46875 C 186.792969 62.46875 180.054688 52.269531 180.054688 52.269531 Z M 180.054688 52.269531 "/>
<path fill-rule="nonzero" fill="rgb(0%, 0%, 0%)" fill-opacity="1" d="M 86.785156 57.539062 L 88.09375 57.378906 L 88.09375 50.269531 L 86.152344 50.375 L 85.777344 51.292969 L 85.289062 51.304688 L 85.421875 49.675781 L 91.800781 49.675781 L 91.792969 51.320312 L 91.351562 51.367188 L 91.074219 50.371094 L 89.140625 50.269531 L 89.140625 57.375 L 90.539062 57.539062 L 90.539062 57.992188 L 86.785156 57.992188 L 86.785156 57.539062 "/>
<path fill-rule="nonzero" fill="rgb(0%, 0%, 0%)" fill-opacity="1" d="M 92.609375 57.539062 L 93.414062 57.425781 L 93.414062 50.171875 L 92.496094 49.980469 L 92.496094 49.515625 L 94.1875 49.289062 L 94.441406 49.414062 L 94.429688 51.78125 L 94.414062 52.707031 C 94.570312 52.578125 94.742188 52.464844 94.921875 52.363281 C 95.109375 52.261719 95.292969 52.179688 95.480469 52.113281 C 95.664062 52.039062 95.847656 51.988281 96.019531 51.949219 C 96.199219 51.910156 96.359375 51.890625 96.503906 51.890625 C 96.867188 51.890625 97.164062 51.949219 97.398438 52.058594 C 97.628906 52.167969 97.8125 52.339844 97.945312 52.574219 C 98.078125 52.800781 98.171875 53.09375 98.222656 53.457031 C 98.273438 53.816406 98.296875 54.246094 98.292969 54.742188 L 98.292969 57.425781 L 99.09375 57.539062 L 99.09375 57.992188 L 96.363281 57.992188 L 96.363281 57.539062 L 97.261719 57.425781 L 97.261719 55.195312 C 97.261719 54.78125 97.253906 54.417969 97.230469 54.105469 C 97.214844 53.789062 97.160156 53.527344 97.074219 53.316406 C 96.992188 53.101562 96.867188 52.941406 96.699219 52.835938 C 96.53125 52.726562 96.300781 52.675781 96.003906 52.675781 C 95.886719 52.675781 95.761719 52.679688 95.628906 52.695312 C 95.496094 52.710938 95.363281 52.734375 95.226562 52.769531 C 95.097656 52.804688 94.960938 52.847656 94.828125 52.90625 C 94.695312 52.960938 94.566406 53.035156 94.441406 53.125 L 94.441406 57.425781 L 95.226562 57.539062 L 95.226562 57.992188 L 92.609375 57.992188 L 92.609375 57.539062 "/>
<path fill-rule="nonzero" fill="rgb(0%, 0%, 0%)" fill-opacity="1" d="M 100 55.015625 C 100 54.558594 100.070312 54.136719 100.214844 53.75 C 100.359375 53.363281 100.5625 53.03125 100.820312 52.75 C 101.082031 52.464844 101.394531 52.246094 101.757812 52.085938 C 102.121094 51.921875 102.523438 51.832031 102.960938 51.820312 C 103.277344 51.816406 103.5625 51.859375 103.8125 51.960938 C 104.066406 52.058594 104.285156 52.203125 104.460938 52.394531 C 104.640625 52.589844 104.78125 52.824219 104.878906 53.101562 C 104.984375 53.378906 105.042969 53.695312 105.058594 54.050781 C 105.0625 54.273438 105.058594 54.46875 105.039062 54.632812 C 105.027344 54.796875 105.011719 54.945312 104.992188 55.074219 L 101.023438 55.074219 L 101.023438 55.136719 C 101.023438 55.15625 101.023438 55.175781 101.027344 55.195312 C 101.042969 55.628906 101.117188 55.984375 101.25 56.269531 C 101.378906 56.550781 101.546875 56.773438 101.742188 56.941406 C 101.941406 57.105469 102.160156 57.222656 102.398438 57.289062 C 102.640625 57.355469 102.875 57.386719 103.101562 57.386719 C 103.242188 57.386719 103.386719 57.378906 103.542969 57.367188 C 103.695312 57.347656 103.84375 57.324219 103.984375 57.296875 C 104.132812 57.265625 104.265625 57.226562 104.386719 57.1875 C 104.511719 57.148438 104.613281 57.109375 104.6875 57.066406 L 104.886719 57.519531 C 104.78125 57.613281 104.644531 57.699219 104.476562 57.773438 C 104.3125 57.847656 104.132812 57.910156 103.9375 57.964844 C 103.742188 58.015625 103.535156 58.054688 103.320312 58.078125 C 103.105469 58.105469 102.898438 58.121094 102.695312 58.121094 C 102.261719 58.121094 101.878906 58.046875 101.542969 57.902344 C 101.210938 57.75 100.929688 57.542969 100.703125 57.273438 C 100.472656 57.003906 100.296875 56.675781 100.175781 56.292969 C 100.058594 55.914062 100 55.484375 100 55.015625 M 103.964844 54.441406 C 103.976562 54.257812 103.976562 54.078125 103.96875 53.894531 C 103.964844 53.710938 103.945312 53.535156 103.90625 53.371094 C 103.867188 53.203125 103.804688 53.050781 103.722656 52.914062 C 103.644531 52.777344 103.539062 52.664062 103.402344 52.578125 C 103.308594 52.515625 103.203125 52.472656 103.085938 52.445312 C 102.96875 52.410156 102.832031 52.394531 102.683594 52.394531 C 102.484375 52.394531 102.289062 52.433594 102.101562 52.507812 C 101.914062 52.582031 101.746094 52.703125 101.597656 52.867188 C 101.449219 53.03125 101.328125 53.242188 101.226562 53.503906 C 101.128906 53.761719 101.0625 54.074219 101.035156 54.441406 L 103.964844 54.441406 "/>
<path fill-rule="nonzero" fill="rgb(0%, 0%, 0%)" fill-opacity="1" d="M 80.8125 63.625 L 105.121094 63.625 L 105.121094 64.589844 L 80.8125 64.589844 Z M 80.8125 63.625 "/>
<g clip-path="url(#clip-0)">
<path fill-rule="nonzero" fill="rgb(0%, 0%, 0%)" fill-opacity="1" d="M 195.324219 63.625 L 237.300781 63.625 L 237.300781 64.589844 L 195.324219 64.589844 Z M 195.324219 63.625 "/>
</g>
<path fill-rule="nonzero" fill="rgb(0%, 0%, 0%)" fill-opacity="1" d="M 10.757812 0.804688 C 11.882812 2.832031 13.050781 4.578125 14.273438 6.078125 L 14.285156 6.09375 C 14.289062 6.097656 14.296875 6.101562 14.300781 6.105469 C 13.738281 6.023438 13.160156 5.96875 12.558594 5.972656 C 11.371094 5.988281 10.097656 6.191406 8.71875 6.625 C 11.082031 8.601562 13.09375 10.046875 14.863281 11.171875 C 14.820312 11.15625 14.773438 11.140625 14.730469 11.125 L 14.863281 11.199219 C 12.121094 10.34375 9.167969 10.238281 5.707031 11.878906 C 8.191406 13.433594 10.277344 14.570312 12.117188 15.421875 C 12.0625 15.414062 12.007812 15.402344 11.953125 15.394531 L 12.085938 15.46875 C 9.21875 14.972656 6.246094 15.25 3.007812 17.386719 C 5.117188 18.328125 6.953125 19.039062 8.585938 19.585938 L 8.601562 19.585938 L 8.707031 19.644531 C 5.972656 19.753906 3.261719 20.601562 0.613281 23.117188 C 2.929688 23.691406 4.910156 24.074219 6.652344 24.328125 C 6.605469 24.335938 6.554688 24.34375 6.503906 24.355469 C 6.4375 24.355469 6.367188 24.355469 6.300781 24.355469 L 6.371094 24.386719 C 4.335938 24.847656 2.347656 25.871094 0.40625 27.824219 C 1.980469 28.164062 3.394531 28.429688 4.691406 28.625 C 3.09375 29.394531 1.582031 30.589844 0.203125 32.417969 C 2.011719 32.558594 3.617188 32.617188 5.058594 32.625 C 3.316406 33.429688 1.671875 34.699219 0.214844 36.742188 C 2.804688 36.875 4.964844 36.867188 6.832031 36.757812 C 6.796875 36.773438 6.761719 36.789062 6.726562 36.804688 C 6.613281 36.8125 6.5 36.820312 6.386719 36.832031 L 6.550781 36.890625 C 4.613281 37.742188 2.816406 39.121094 1.277344 41.453125 C 4.496094 41.5 7.042969 41.347656 9.179688 41.085938 C 9.113281 41.101562 9.050781 41.125 8.984375 41.144531 C 8.902344 41.148438 8.816406 41.152344 8.734375 41.160156 L 8.839844 41.1875 C 6.320312 41.9375 3.992188 43.382812 2.0625 46.3125 C 4.660156 46.347656 6.828125 46.25 8.691406 46.074219 C 8.648438 46.097656 8.613281 46.125 8.574219 46.148438 C 6.347656 47.390625 4.433594 49.253906 3.167969 52.410156 C 5.453125 51.976562 7.367188 51.519531 9.03125 51.035156 C 9.003906 51.058594 8.96875 51.074219 8.941406 51.09375 L 9.046875 51.082031 C 7.335938 52.355469 5.894531 54.144531 4.925781 56.792969 C 6.5 56.445312 7.902344 56.082031 9.164062 55.714844 C 8.03125 57.082031 7.160156 58.789062 6.667969 61.03125 C 8.375 60.402344 9.859375 59.796875 11.171875 59.199219 C 11.15625 59.21875 11.144531 59.242188 11.128906 59.261719 C 11.101562 59.28125 11.066406 59.296875 11.039062 59.320312 L 11.082031 59.304688 C 9.878906 60.75 8.957031 62.566406 8.5 64.972656 C 10.902344 64.011719 12.859375 63.089844 14.507812 62.214844 C 14.460938 62.257812 14.402344 62.300781 14.359375 62.347656 L 14.40625 62.332031 C 12.945312 63.929688 11.859375 65.984375 11.421875 68.8125 C 14.261719 67.558594 16.449219 66.394531 18.242188 65.296875 C 18.222656 65.316406 18.203125 65.339844 18.183594 65.359375 L 18.300781 65.296875 C 16.261719 67.042969 14.699219 69.363281 14.152344 72.902344 C 17.980469 71.214844 20.65625 69.683594 22.730469 68.265625 C 21.839844 70.070312 21.367188 72.171875 21.59375 74.808594 C 25.292969 71.96875 27.632812 69.683594 29.375 67.660156 C 29.375 67.691406 29.378906 67.71875 29.375 67.75 C 29.269531 69.03125 29.351562 70.421875 29.730469 71.957031 C 31.921875 68.191406 34.113281 66.628906 36.34375 65.34375 C 33.554688 67.152344 34.054688 68.617188 34.054688 70.289062 C 37.375 66.796875 41.988281 63.085938 43.402344 60.765625 C 41.511719 63.605469 40.753906 66.304688 40.257812 68.679688 C 30.578125 73.796875 24.671875 75.136719 18.066406 77.183594 C 20.628906 78.125 23.378906 79.039062 22.246094 80.34375 L 19.21875 83.371094 C 21.152344 82.769531 23.128906 81.902344 24.84375 83.074219 C 24.675781 84.664062 22.671875 85.472656 20.960938 86.398438 C 23.976562 85.3125 24.625 85.566406 25.417969 85.820312 C 25.816406 87.722656 24.441406 88.742188 23.542969 90 C 31.140625 84.226562 41.042969 79.664062 48.023438 77.761719 C 57.839844 74.453125 70.507812 71.007812 73.949219 62.625 L 77.390625 48.804688 C 81.425781 44.4375 85.140625 39.914062 86.898438 34.410156 C 98.136719 32.238281 107.230469 33.015625 116.710938 33.257812 C 115.84375 33.113281 87.769531 28.355469 87.769531 28.355469 C 79.5625 17.128906 67.320312 24.765625 63.289062 35.859375 C 62.273438 38.65625 56.46875 38.652344 54.785156 35.84375 C 48.136719 21.527344 27.941406 6.386719 10.757812 0.804688 Z M 10.757812 0.804688 "/>
<path fill-rule="nonzero" fill="rgb(0%, 50.195312%, 50.195312%)" fill-opacity="1" d="M 10.5625 0 C 11.695312 2.039062 12.871094 3.78125 14.101562 5.289062 C 13.539062 5.207031 12.960938 5.160156 12.359375 5.164062 C 11.171875 5.175781 9.902344 5.375 8.527344 5.808594 C 10.925781 7.816406 12.953125 9.285156 14.742188 10.414062 C 11.980469 9.53125 9.003906 9.40625 5.503906 11.066406 C 8.058594 12.664062 10.203125 13.820312 12.082031 14.683594 C 9.15625 14.144531 6.121094 14.390625 2.8125 16.570312 C 4.996094 17.546875 6.886719 18.277344 8.566406 18.832031 C 5.8125 18.929688 3.085938 19.78125 0.417969 22.308594 C 2.730469 22.882812 4.714844 23.265625 6.457031 23.519531 C 4.324219 23.949219 2.230469 24.972656 0.203125 27.019531 C 1.773438 27.359375 3.1875 27.613281 4.484375 27.808594 C 2.890625 28.578125 1.378906 29.773438 0 31.601562 C 1.8125 31.742188 3.414062 31.804688 4.855469 31.8125 C 3.113281 32.617188 1.480469 33.894531 0.0234375 35.9375 C 2.609375 36.066406 4.773438 36.054688 6.636719 35.945312 C 4.585938 36.785156 2.699219 38.199219 1.085938 40.648438 C 4.300781 40.695312 6.847656 40.539062 8.984375 40.277344 C 6.332031 40.996094 3.878906 42.441406 1.859375 45.503906 C 4.457031 45.539062 6.625 45.445312 8.488281 45.269531 C 6.210938 46.511719 4.253906 48.394531 2.964844 51.605469 C 5.308594 51.160156 7.273438 50.683594 8.96875 50.1875 C 7.203125 51.46875 5.722656 53.273438 4.730469 55.980469 C 6.304688 55.632812 7.699219 55.269531 8.960938 54.902344 C 7.828125 56.269531 6.957031 57.980469 6.464844 60.222656 C 8.175781 59.59375 9.652344 58.984375 10.964844 58.386719 C 9.71875 59.847656 8.761719 61.699219 8.292969 64.164062 C 10.699219 63.203125 12.652344 62.285156 14.300781 61.410156 C 12.792969 63.023438 11.667969 65.101562 11.21875 68 C 14.148438 66.707031 16.394531 65.507812 18.222656 64.382812 C 16.125 66.140625 14.511719 68.476562 13.953125 72.085938 C 17.78125 70.398438 20.449219 68.867188 22.527344 67.449219 C 21.632812 69.253906 21.160156 71.367188 21.386719 74 C 25.085938 71.164062 27.425781 68.867188 29.171875 66.84375 C 29.054688 68.152344 29.144531 69.570312 29.535156 71.140625 C 32.1875 66.582031 34.828125 65.25 37.554688 63.730469 C 33.207031 65.917969 33.851562 67.566406 33.851562 69.476562 C 37.167969 65.984375 41.796875 62.28125 43.210938 59.960938 C 41.320312 62.800781 40.546875 65.492188 40.050781 67.867188 C 30.371094 72.984375 24.480469 74.324219 17.871094 76.367188 C 20.433594 77.308594 23.179688 78.230469 22.046875 79.535156 L 19.019531 82.554688 C 20.953125 81.953125 22.925781 81.097656 24.640625 82.269531 C 24.472656 83.855469 22.464844 84.660156 20.753906 85.585938 C 23.769531 84.496094 24.421875 84.75 25.214844 85.003906 C 25.609375 86.90625 24.234375 87.929688 23.339844 89.183594 C 30.933594 83.410156 40.847656 78.847656 47.824219 76.941406 C 57.644531 73.636719 70.300781 70.199219 73.742188 61.820312 L 77.199219 47.996094 C 81.234375 43.628906 84.945312 39.097656 86.707031 33.59375 C 97.945312 31.417969 107.03125 32.203125 116.511719 32.445312 C 115.648438 32.300781 87.566406 27.542969 87.566406 27.542969 C 79.359375 16.316406 67.125 23.949219 63.097656 35.039062 C 62.078125 37.839844 56.273438 37.839844 54.59375 35.03125 C 47.945312 20.714844 27.75 5.578125 10.5625 0 Z M 10.5625 0 "/>
<path fill-rule="nonzero" fill="rgb(100%, 100%, 100%)" fill-opacity="1" d="M 76.867188 29.300781 L 76.792969 29.421875 C 76.5 29.960938 76.007812 30.332031 75.316406 30.558594 C 74.625 30.78125 73.734375 30.851562 72.703125 30.808594 L 72.054688 30.777344 L 72.523438 31.234375 C 72.765625 31.46875 72.832031 31.652344 72.835938 31.8125 C 72.839844 31.972656 72.769531 32.148438 72.613281 32.34375 C 72.300781 32.738281 71.683594 33.164062 71.109375 33.597656 L 70.914062 33.730469 L 71.046875 33.921875 C 71.53125 34.660156 71.75 35.230469 71.800781 35.664062 C 71.851562 36.101562 71.753906 36.414062 71.550781 36.683594 C 71.148438 37.222656 70.265625 37.589844 69.46875 38.042969 L 69.320312 38.117188 L 69.351562 38.292969 C 69.417969 38.707031 69.308594 39.046875 69.011719 39.386719 C 68.714844 39.722656 68.214844 40.046875 67.550781 40.332031 L 67.371094 40.40625 L 67.402344 40.597656 C 67.535156 41.484375 67.800781 42.257812 68.363281 42.753906 C 68.875 43.203125 69.648438 43.324219 70.636719 43.121094 C 70.808594 44.070312 71.054688 44.929688 71.625 45.5 C 72.203125 46.074219 73.117188 46.246094 74.339844 45.925781 C 74.617188 46.589844 75.019531 47.0625 75.476562 47.375 C 75.984375 47.714844 76.640625 47.851562 77.183594 48.019531 L 77.503906 47.675781 C 76.964844 47.507812 76.171875 47.25 75.742188 46.960938 C 75.316406 46.671875 74.96875 46.273438 74.726562 45.585938 L 74.652344 45.351562 L 74.414062 45.425781 C 73.15625 45.8125 72.460938 45.636719 71.980469 45.160156 C 71.5 44.679688 71.230469 43.816406 71.0625 42.8125 L 71.019531 42.546875 L 70.753906 42.621094 C 69.714844 42.890625 69.105469 42.75 68.6875 42.382812 C 68.296875 42.039062 68.066406 41.429688 67.933594 40.671875 C 68.535156 40.394531 69.050781 40.089844 69.378906 39.710938 C 69.703125 39.339844 69.84375 38.886719 69.824219 38.410156 C 70.554688 38.007812 71.441406 37.664062 71.949219 36.980469 C 72.214844 36.621094 72.355469 36.152344 72.289062 35.605469 C 72.230469 35.109375 71.988281 34.535156 71.566406 33.847656 C 72.082031 33.46875 72.644531 33.085938 72.996094 32.640625 C 73.195312 32.390625 73.34375 32.113281 73.335938 31.796875 C 73.332031 31.625 73.167969 31.464844 73.070312 31.296875 C 73.96875 31.308594 74.789062 31.246094 75.464844 31.03125 C 76.175781 30.800781 76.734375 30.378906 77.101562 29.804688 C 78.164062 29.808594 79.265625 30.042969 80.378906 30.1875 C 81.523438 30.335938 82.6875 30.375 83.789062 29.894531 L 83.585938 29.433594 C 82.609375 29.863281 81.566406 29.84375 80.453125 29.699219 C 79.339844 29.554688 78.179688 29.292969 77.015625 29.300781 Z M 76.867188 29.300781 "/>
<path fill-rule="nonzero" fill="rgb(100%, 100%, 100%)" fill-opacity="1" stroke-width="0.495505" stroke-linecap="butt" stroke-linejoin="miter" stroke="rgb(100%, 100%, 100%)" stroke-opacity="1" stroke-miterlimit="4" d="M 80.996094 -29.117188 C 80.996094 -30.277344 80.058594 -31.214844 78.898438 -31.214844 C 77.742188 -31.214844 76.800781 -30.277344 76.800781 -29.117188 C 76.800781 -27.960938 77.742188 -27.019531 78.898438 -27.019531 C 80.058594 -27.019531 80.996094 -27.960938 80.996094 -29.117188 Z M 80.996094 -29.117188 " transform="matrix(1, 0, 0, -1, 0, 0)"/>
<path fill-rule="nonzero" fill="rgb(100%, 100%, 100%)" fill-opacity="1" d="M 87.265625 27.148438 C 85.378906 29.601562 84.90625 28.96875 83.761719 29.378906 L 83.566406 29.453125 L 83.597656 29.660156 C 84.039062 32.121094 85.496094 32.902344 86.636719 33.796875 L 86.699219 33.597656 L 87.003906 33.539062 C 85.863281 32.644531 84.613281 31.882812 84.160156 29.792969 C 84.992188 29.59375 85.789062 29.847656 87.570312 27.53125 Z M 87.265625 27.148438 "/>
<path fill-rule="nonzero" fill="rgb(100%, 100%, 100%)" fill-opacity="1" d="M 14.742188 10.410156 C 18.300781 12.617188 24.15625 14.890625 27.917969 17.269531 C 29.988281 18.585938 31.847656 19.898438 33.292969 21.035156 C 34.738281 22.167969 35.808594 23.339844 36.203125 23.722656 C 36.597656 24.101562 36.863281 23.921875 36.601562 23.425781 C 36.339844 22.929688 35.050781 21.78125 33.589844 20.636719 C 32.128906 19.488281 30.265625 18.179688 28.183594 16.855469 C 24.023438 14.203125 19.136719 11.835938 14.742188 10.410156 Z M 14.742188 10.410156 "/>
<path fill-rule="nonzero" fill="rgb(100%, 100%, 100%)" fill-opacity="1" d="M 14.101562 5.289062 C 15.59375 5.632812 17.796875 6.90625 20.242188 8.265625 C 22.691406 9.628906 25.359375 11.304688 27.804688 12.933594 C 30.246094 14.5625 32.128906 15.988281 33.632812 17.136719 C 35.0625 18.359375 35.769531 19.148438 36.042969 19.148438 C 36.078125 19.15625 36.117188 19.15625 36.175781 19.148438 C 36.234375 19.140625 36.332031 19.09375 36.382812 19 C 36.429688 18.90625 36.410156 18.828125 36.394531 18.777344 C 36.378906 18.730469 36.371094 18.707031 36.351562 18.675781 C 36.269531 18.554688 36.148438 18.441406 35.96875 18.277344 C 35.609375 17.949219 35.011719 17.46875 34.253906 16.890625 C 32.738281 15.730469 30.535156 14.152344 28.082031 12.519531 C 25.632812 10.882812 22.945312 9.195312 20.480469 7.824219 C 19.601562 7.5 15.304688 5.226562 14.101562 5.289062 Z M 14.101562 5.289062 "/>
<path fill-rule="nonzero" fill="rgb(100%, 100%, 100%)" fill-opacity="1" d="M 12.0625 14.683594 C 16.628906 16.546875 23.128906 18.738281 27.464844 21.464844 C 29.796875 22.945312 31.824219 24.417969 33.34375 25.628906 C 34.101562 26.234375 34.734375 26.777344 35.203125 27.207031 C 35.671875 27.640625 35.9375 28.03125 36.089844 28.136719 C 36.40625 28.363281 36.648438 28.214844 36.5 27.859375 C 36.390625 27.589844 36.023438 27.28125 35.542969 26.839844 C 35.0625 26.398438 34.417969 25.855469 33.652344 25.246094 C 32.121094 24.023438 30.078125 22.527344 27.730469 21.035156 C 23.039062 18.054688 17.425781 15.433594 12.0625 14.683594 Z M 12.0625 14.683594 "/>
<path fill-rule="nonzero" fill="rgb(100%, 100%, 100%)" fill-opacity="1" d="M 8.546875 18.828125 C 12.105469 18.828125 19.460938 22.089844 22.558594 23.722656 C 27.585938 26.402344 32.15625 29.847656 34.683594 32.253906 C 34.960938 32.523438 35.371094 32.285156 35.050781 31.914062 C 32.707031 29.195312 27.859375 25.992188 22.796875 23.292969 C 17.734375 20.59375 12.492188 18.824219 8.546875 18.828125 Z M 8.546875 18.828125 "/>
<path fill-rule="nonzero" fill="rgb(100%, 100%, 100%)" fill-opacity="1" d="M 6.488281 23.515625 C 11.839844 24.300781 18.257812 26.460938 22.929688 28.800781 C 25.539062 30.125 27.867188 31.542969 29.648438 32.800781 C 31.433594 34.058594 32.75 35.476562 33.074219 35.84375 C 33.398438 36.210938 33.785156 36.226562 33.488281 35.578125 C 33.191406 34.929688 31.738281 33.664062 29.929688 32.386719 C 28.121094 31.113281 25.78125 29.691406 23.152344 28.359375 C 17.894531 25.6875 11.90625 23.585938 6.488281 23.515625 Z M 6.488281 23.515625 "/>
<path fill-rule="nonzero" fill="rgb(100%, 100%, 100%)" fill-opacity="1" d="M 8.257812 27.5 C 6.925781 27.382812 5.730469 27.65625 4.511719 27.808594 C 9.265625 27.363281 15.914062 29.546875 20.347656 31.589844 C 25.570312 34.039062 29.90625 37.398438 31.984375 39.53125 C 32.308594 39.867188 32.539062 39.441406 32.367188 39.222656 C 30.433594 36.753906 25.828125 33.605469 20.554688 31.132812 C 16.601562 29.277344 12.246094 27.847656 8.257812 27.5 Z M 8.257812 27.5 "/>
<path fill-rule="nonzero" fill="rgb(100%, 100%, 100%)" fill-opacity="1" d="M 4.878906 31.785156 C 9.558594 32.132812 15.824219 33.253906 20.210938 35.269531 C 24.625 37.332031 27.976562 40.007812 29.660156 41.527344 C 29.921875 41.761719 30.378906 41.597656 30.015625 41.175781 C 28.476562 39.386719 24.902344 36.914062 20.433594 34.824219 C 15.964844 32.734375 10.539062 31.398438 4.878906 31.785156 Z M 4.878906 31.785156 "/>
<path fill-rule="nonzero" fill="rgb(100%, 100%, 100%)" fill-opacity="1" d="M 9.078125 35.679688 C 8.09375 35.648438 7.628906 35.832031 6.675781 35.933594 C 9.851562 36.074219 14.902344 36.917969 17.6875 37.867188 C 21.304688 39.121094 24.28125 41.011719 25.972656 42.488281 C 26.296875 42.773438 26.542969 42.390625 26.324219 42.148438 C 24.742188 40.371094 21.519531 38.667969 17.851562 37.394531 C 15.097656 36.4375 12.042969 35.78125 9.078125 35.679688 Z M 9.078125 35.679688 "/>
<path fill-rule="nonzero" fill="rgb(100%, 100%, 100%)" fill-opacity="1" d="M 8.945312 40.285156 C 15.734375 40.746094 19.839844 41.941406 22.988281 44.761719 C 23.222656 44.972656 23.59375 44.679688 23.339844 44.40625 C 20.109375 40.90625 13.753906 39.933594 8.945312 40.285156 Z M 8.945312 40.285156 "/>
<path fill-rule="nonzero" fill="rgb(100%, 100%, 100%)" fill-opacity="1" d="M 14.171875 44.363281 C 12.113281 44.199219 10.390625 44.648438 8.515625 45.273438 C 14.003906 44.398438 16.289062 44.816406 20.445312 46.773438 C 20.921875 46.992188 20.894531 46.46875 20.683594 46.34375 C 18.472656 45.015625 16.230469 44.53125 14.171875 44.363281 Z M 14.171875 44.363281 "/>
<path fill-rule="nonzero" fill="rgb(100%, 100%, 100%)" fill-opacity="1" d="M 13.976562 48.1875 C 12.03125 48.359375 10.378906 49.027344 9.015625 50.136719 C 14.453125 48.042969 15.953125 48.457031 20.113281 49.636719 C 20.660156 49.792969 20.488281 49.265625 20.273438 49.179688 C 17.785156 48.183594 15.921875 48.015625 13.976562 48.1875 Z M 13.976562 48.1875 "/>
<path fill-rule="nonzero" fill="rgb(100%, 100%, 100%)" fill-opacity="1" d="M 24.746094 51.554688 C 21.847656 51.242188 18.578125 51.59375 15.710938 52.117188 C 12.84375 52.640625 10.378906 53.703125 8.984375 54.835938 C 13.753906 52.820312 14.621094 52.824219 15.800781 52.605469 C 18.625 52.089844 21.425781 51.886719 24.71875 52.042969 C 25.015625 52.058594 25 51.582031 24.75 51.554688 Z M 24.746094 51.554688 "/>
<path fill-rule="nonzero" fill="rgb(100%, 100%, 100%)" fill-opacity="1" d="M 26.429688 53.902344 C 23.289062 53.785156 20.042969 54.5625 17.234375 55.363281 C 14.425781 56.167969 12.339844 57.261719 10.964844 58.378906 C 13.746094 57.042969 16.335938 56.136719 17.367188 55.835938 C 20.132812 55.046875 22.929688 54.359375 26.460938 54.40625 C 26.734375 54.410156 26.914062 53.921875 26.429688 53.902344 Z M 26.429688 53.902344 "/>
<path fill-rule="nonzero" fill="rgb(100%, 100%, 100%)" fill-opacity="1" d="M 28.996094 55.835938 C 26.039062 56.273438 22.933594 57.148438 20.226562 58.066406 C 17.523438 58.984375 15.597656 60.074219 14.339844 61.378906 C 17.558594 59.53125 19.328125 58.882812 20.375 58.523438 C 23.046875 57.617188 25.542969 56.984375 29.085938 56.324219 C 29.511719 56.242188 29.171875 55.808594 28.996094 55.835938 Z M 28.996094 55.835938 "/>
<path fill-rule="nonzero" fill="rgb(100%, 100%, 100%)" fill-opacity="1" d="M 30.503906 58.300781 C 24.566406 59.246094 20.71875 61.808594 18.273438 64.347656 C 22.0625 61.492188 24.699219 59.957031 30.605469 58.789062 C 30.980469 58.714844 30.867188 58.242188 30.503906 58.300781 Z M 30.503906 58.300781 "/>
<path fill-rule="nonzero" fill="rgb(100%, 100%, 100%)" fill-opacity="1" d="M 33.398438 60.472656 C 27.425781 61.390625 23.980469 65.019531 22.546875 67.417969 C 26.324219 63.644531 29.265625 61.589844 33.5 60.957031 C 33.929688 60.894531 33.820312 60.40625 33.394531 60.472656 Z M 33.398438 60.472656 "/>
<path fill-rule="nonzero" fill="rgb(100%, 100%, 100%)" fill-opacity="1" d="M 35.199219 62.363281 C 34.265625 62.476562 33 63.136719 31.800781 63.898438 C 30.605469 64.65625 29.703125 65.582031 29.164062 66.773438 C 30.605469 65.285156 31.183594 64.882812 32.070312 64.3125 C 33.21875 63.582031 34.375 63.121094 35.316406 62.847656 C 35.757812 62.722656 35.425781 62.332031 35.199219 62.363281 Z M 35.199219 62.363281 "/>
<path fill-rule="nonzero" fill="rgb(100%, 100%, 100%)" fill-opacity="1" stroke-width="0.495505" stroke-linecap="butt" stroke-linejoin="miter" stroke="rgb(100%, 100%, 100%)" stroke-opacity="1" stroke-miterlimit="4" d="M 80.996094 -29.117188 C 80.996094 -30.277344 80.058594 -31.214844 78.898438 -31.214844 C 77.742188 -31.214844 76.800781 -30.277344 76.800781 -29.117188 C 76.800781 -27.960938 77.742188 -27.019531 78.898438 -27.019531 C 80.058594 -27.019531 80.996094 -27.960938 80.996094 -29.117188 Z M 80.996094 -29.117188 " transform="matrix(1, 0, 0, -1, 0, 0)"/>
<path fill-rule="nonzero" fill="rgb(21.568298%, 78.430176%, 44.313049%)" fill-opacity="1" stroke-width="0.495505" stroke-linecap="butt" stroke-linejoin="miter" stroke="rgb(100%, 100%, 100%)" stroke-opacity="1" stroke-miterlimit="4" d="M 80.996094 -29.117188 C 80.996094 -30.277344 80.058594 -31.214844 78.898438 -31.214844 C 77.742188 -31.214844 76.800781 -30.277344 76.800781 -29.117188 C 76.800781 -27.960938 77.742188 -27.019531 78.898438 -27.019531 C 80.058594 -27.019531 80.996094 -27.960938 80.996094 -29.117188 Z M 80.996094 -29.117188 " transform="matrix(1, 0, 0, -1, 0, 0)"/>
</svg>
